<?xml version="1.0" encoding="utf-8"?>
<!-- Generator: Adobe Illustrator 27.2.0, SVG Export Plug-In . SVG Version: 6.00 Build 0)  -->
<svg version="1.1" id="Layer_1" xmlns="http://www.w3.org/2000/svg" xmlns:xlink="http://www.w3.org/1999/xlink" x="0px" y="0px"
	 viewBox="0 0 250 250" style="enable-background:new 0 0 250 250;" xml:space="preserve">
<style type="text/css">
	.st0{fill:#B2A268;}
	.st1{fill:#003057;}
</style>
<g id="Outer_Ring">
	<path class="st0" d="M125.2,249.8c-69,0-125-56-125-125c0-33.1,13.2-65,36.6-88.4c48.8-48.8,128-48.8,176.8,0s48.8,128,0,176.8
		C190.2,236.7,158.4,249.9,125.2,249.8z M125.2,6C59.6,6,6.4,59.2,6.4,124.8c0,31.5,12.5,61.7,34.8,84c46.4,46.4,121.6,46.4,168.1,0
		s46.4-121.6,0-168.1C187,18.4,156.8,5.9,125.2,6L125.2,6z"/>
	<path class="st1" d="M125.2,239.9c-63.5,0-115.1-51.5-115.1-115.1c0-30.5,12.1-59.8,33.7-81.4c44.9-44.9,117.8-44.9,162.7,0
		s44.9,117.8,0,162.7l0,0C185.1,227.8,155.8,240,125.2,239.9z M125.2,11C62.4,11,11.4,62,11.4,124.8s51,113.8,113.8,113.8
		S239,187.6,239,124.8c0-30.2-12-59.2-33.4-80.5C184.4,22.9,155.4,10.9,125.2,11L125.2,11z"/>
</g>
<g id="Inner_Ring">
	<path class="st1" d="M125.2,33.6C74.8,33.6,34,74.4,34,124.8s40.9,91.2,91.2,91.2s91.3-40.9,91.3-91.2S175.6,33.6,125.2,33.6
		L125.2,33.6z M210.6,135.4c-0.2,1.5-0.4,3-0.7,4.5l-4.5,1.7c-0.3,1.2-0.5,2.4-0.8,3.5l3.3,3.5c-0.4,1.4-0.9,2.9-1.4,4.3l-4.7,1
		c-0.4,1.1-0.9,2.3-1.4,3.3l2.7,4c-0.6,1.4-1.3,2.7-2.1,4.1l-4.8,0.3c-0.6,1-1.2,2.1-1.9,3.1l2.1,4.4c-0.9,1.2-1.7,2.5-2.7,3.7
		l-4.8-0.5c-0.8,0.9-1.5,1.9-2.3,2.8l1.3,4.6c-1,1.1-2.1,2.2-3.2,3.2l-4.6-1.3c-0.9,0.8-1.8,1.6-2.7,2.4l0.6,4.8
		c-1.2,0.9-2.4,1.9-3.6,2.7l-4.4-2c-1,0.7-2.1,1.3-3.1,1.9l-0.2,4.8c-1.3,0.7-2.7,1.4-4,2.1l-4-2.6c-1.1,0.5-2.2,1-3.3,1.4l-0.9,4.7
		c-1.4,0.5-2.8,1-4.3,1.4l-3.5-3.2c-1.1,0.3-2.3,0.6-3.5,0.9l-1.6,4.5c-1.5,0.3-3,0.5-4.5,0.7l-3-3.8c-1.2,0.1-2.4,0.2-3.6,0.3
		l-2.3,4.2c-0.8,0-1.5,0.1-2.3,0.1c-0.8,0-1.5,0-2.3,0l-2.4-4.2c-1.2-0.1-2.4-0.2-3.6-0.3l-3,3.8c-1.5-0.2-3-0.4-4.5-0.7l-1.7-4.5
		c-1.2-0.3-2.4-0.5-3.5-0.8l-3.5,3.3c-1.4-0.4-2.9-0.9-4.3-1.4l-1-4.7c-1.1-0.4-2.3-0.9-3.3-1.4l-4,2.7c-1.4-0.6-2.7-1.3-4.1-2.1
		l-0.2-4.8c-1-0.6-2.1-1.2-3.1-1.9L77,196c-1.2-0.9-2.5-1.7-3.7-2.7l0.5-4.8c-0.9-0.8-1.9-1.5-2.8-2.3l-4.6,1.3
		c-1.1-1-2.2-2.1-3.2-3.2l1.3-4.6c-0.8-0.9-1.6-1.8-2.4-2.7l-4.8,0.6c-0.9-1.2-1.9-2.4-2.7-3.6l2-4.4c-0.7-1-1.3-2.1-1.9-3.1
		l-4.8-0.2c-0.7-1.3-1.4-2.7-2.1-4l2.6-4.1c-0.5-1.1-1-2.2-1.4-3.3l-4.7-0.9c-0.5-1.4-1-2.8-1.4-4.3l3.2-3.5
		c-0.3-1.2-0.6-2.3-0.9-3.5l-4.5-1.6c-0.3-1.5-0.5-3-0.7-4.5l3.8-3c-0.1-1.2-0.2-2.4-0.3-3.6l-4.2-2.3c0-0.8-0.1-1.5-0.1-2.3
		c0-0.8,0-1.5,0-2.3l4.2-2.4c0.1-1.2,0.2-2.4,0.3-3.6l-3.8-3c0.2-1.5,0.4-3,0.7-4.5l4.5-1.7c0.3-1.2,0.5-2.4,0.8-3.5l-3.3-3.5
		c0.4-1.4,0.9-2.9,1.4-4.3l4.7-1c0.4-1.1,0.9-2.3,1.4-3.3l-2.7-4c0.6-1.4,1.3-2.7,2-4.1l4.8-0.2c0.6-1,1.2-2.1,1.9-3.1l-2.1-4.4
		c0.9-1.2,1.7-2.5,2.7-3.7l4.8,0.5c0.8-0.9,1.5-1.9,2.3-2.8l-1.3-4.6c1-1.1,2.1-2.2,3.2-3.2l4.6,1.3c0.9-0.8,1.8-1.6,2.7-2.4
		l-0.6-4.8c1.2-0.9,2.4-1.9,3.6-2.7l4.4,2c1-0.7,2.1-1.3,3.1-1.9l0.2-4.8c1.3-0.7,2.7-1.4,4-2.1l4,2.6c1.1-0.5,2.2-1,3.3-1.4
		l0.9-4.7c1.4-0.5,2.8-1,4.3-1.4l3.5,3.2c1.2-0.3,2.3-0.6,3.5-0.9l1.6-4.5c1.5-0.3,3-0.5,4.5-0.7l3,3.8c1.2-0.1,2.4-0.2,3.6-0.3
		l2.3-4.2c0.8,0,1.5-0.1,2.3-0.1s1.5,0,2.3,0l2.4,4.2c1.2,0.1,2.4,0.2,3.6,0.3l3-3.8c1.5,0.2,3,0.4,4.5,0.7l1.7,4.5
		c1.2,0.3,2.4,0.5,3.5,0.8l3.5-3.3c1.4,0.4,2.9,0.9,4.3,1.4l1,4.7c1.1,0.4,2.3,0.9,3.3,1.4l4-2.7c1.4,0.6,2.7,1.3,4.1,2l0.3,4.8
		c1,0.6,2.1,1.2,3.1,1.9l4.4-2.1c1.2,0.9,2.5,1.7,3.7,2.7l-0.5,4.8c0.9,0.8,1.9,1.5,2.8,2.3l4.6-1.3c1.1,1,2.2,2.1,3.2,3.2l-1.3,4.6
		c0.8,0.9,1.6,1.8,2.4,2.7l4.8-0.6c0.9,1.2,1.9,2.4,2.7,3.6l-2,4.4c0.7,1,1.3,2.1,1.9,3.1l4.8,0.2c0.7,1.3,1.4,2.7,2.1,4l-2.6,4
		c0.5,1.1,1,2.2,1.4,3.3l4.7,0.9c0.5,1.4,1,2.8,1.4,4.3l-3.2,3.5c0.3,1.2,0.6,2.3,0.9,3.5l4.5,1.6c0.3,1.5,0.5,3,0.7,4.5l-3.8,3
		c0.1,1.2,0.2,2.4,0.3,3.6l4.2,2.3c0,0.8,0.1,1.5,0.1,2.3c0,0.8,0,1.5,0,2.3l-4.2,2.4c-0.1,1.2-0.2,2.4-0.3,3.6L210.6,135.4z"/>
</g>
<g id="Flame">
	<path class="st0" d="M133.2,60.9c-0.4-3.6-2.9-5.9-4.5-8.8c-2.7-5-2.4-6.8-2.4-6.8s0.2-2.1-1.4-2.1c-1.4,0-2.1,1.4-2.5,2.3
		c-0.6,1.6-1,3.2-1.2,4.9c-0.4,3.6-3.3,4.8-4.1,10.3c0,0-0.5,6.1,3.1,8.9h9.9C133.8,66.5,133.2,60.9,133.2,60.9z M122.4,67.7
		c-2.1-1.5-3.2-3.9-3.2-6.4c0-3.2,3.2-7.7,3.2-7.7s0.6,4.3,2.2,7.1C126.5,64.2,122.4,67.7,122.4,67.7z M130,67.3
		c-0.7,0.9-1.4,1.6-2.4,2.3h-4.4c3-3.5,5-5.9,2.9-10.5c-3.8-8.2-2-13.1-2-13.1c0.3,1.5,0.3,2.6,2.8,7.2c0.7,1.2,1.4,2.3,2.3,3.3
		C131.9,59.6,132.2,64,130,67.3z"/>
</g>
<g id="Blue_Shield">
	<path class="st0" d="M103.7,167.5c-1.2,1.1-2.7,2-4.3,2.6c2,2.8,4.1,5.5,6.3,8.2v-6.1c-0.9-1-1.3-2.2-1.2-3.5v-1.9
		C104.3,167,104,167.3,103.7,167.5z"/>
	<path class="st0" d="M146.5,167.5c-0.2-0.2-0.4-0.4-0.6-0.6v1.6c0.1,1.3-0.4,2.5-1.2,3.5v6.2c2.3-2.7,4.4-5.4,6.3-8.2
		C149.4,169.6,147.8,168.7,146.5,167.5z"/>
	<path class="st0" d="M104.4,143.5c-5.6,4-7,8.6-7.3,9.7v7.1c3.4-0.3,5.8-1.1,6.2-2.9c0.2-0.9,0.4-1.5,0.7-1.5
		c0.2,0,0.3,0.1,0.5,0.2L104.4,143.5L104.4,143.5z"/>
	<path class="st0" d="M147.5,143.5c-0.9-1-1.4-2.3-1.5-3.6v16c0.1,0,0.2-0.1,0.3,0c0.3,0,0.5,0.6,0.7,1.5c0.4,1.8,2.8,2.7,6.4,2.9
		v-8.1C152.2,148.9,150.2,145.9,147.5,143.5z"/>
	<path class="st0" d="M107.7,122.9H91.3v0.3c0,0.7,0.9,0.9,0.9,1v3.3c0,0.5,0.3,1,0.7,1.2h1.6c0.3,0.3,0.6,0.6,0.7,0.9
		c0.1,1.2,0.4,2.4,1.3,2.6c0,0.6,0.2,1.1,0.5,1.6c0.1,0.6,0.1,1.8,0.1,2.5v3.5c1.7-2.1,3.6-4,5.9-5.6c0.6,0.8,1.1,1.6,1.5,2.5v-0.5
		c0.1-0.6,0.1-1.8,0.1-2.5c0.3-0.5,0.5-1,0.5-1.6c0.5-0.2,0.9-0.6,1-1.1c5.6,7.5,11.3,9.5,15.3,10.1v37.2h7.6v-37.2
		c4-0.6,9.7-2.7,15.3-10.2c0.1,0.6,0.5,1,1,1.2c0,0.6,0.2,1.1,0.5,1.6c0.1,0.6,0.1,1.8,0.1,2.5v2.3c0.2-1.8,0.9-3.5,2.1-4.9
		c2,1.7,3.8,3.8,5.3,5.9v-3.3c0.1-0.6,0.1-1.8,0.1-2.5c0.3-0.5,0.5-1,0.5-1.6c0.9-0.3,1.2-1.4,1.3-2.6c0.2-0.3,0.5-0.6,0.7-0.9h1.8
		c0.4-0.3,0.7-0.7,0.6-1.2v-3.3c0-0.1,0.1-0.2,0.1-0.2c0.4-0.1,0.7-0.4,0.7-0.8v-0.3H107.7z M125.2,139.3c-3.5,0-12.5,0-20.6-14.4
		h2.2c1.6,1.6,8.8,6.7,18.3,6.7s16.8-5.1,18.3-6.7h2.2C137.8,139.3,128.7,139.3,125.2,139.3z"/>
	<path class="st1" d="M129.3,191.2c-0.5,0-0.9,0.2-1.2,0.5c-0.6,0.7-0.6,1.7,0,2.5c0.3,0.3,0.8,0.5,1.2,0.5c0.5,0,0.9-0.2,1.2-0.5
		c0.6-0.7,0.6-1.7,0-2.5C130.2,191.3,129.7,191.2,129.3,191.2z"/>
	<path class="st1" d="M129.3,189.6c0.4,0,0.8-0.2,1-0.4c0.5-0.6,0.5-1.5,0-2.1c-0.6-0.6-1.5-0.6-2.1,0c-0.5,0.6-0.5,1.5,0,2.1
		C128.5,189.5,128.9,189.6,129.3,189.6z"/>
	<path class="st1" d="M120.1,191.2c-0.5,0-0.9,0.2-1.2,0.5c-0.6,0.7-0.6,1.7,0,2.5c0.3,0.3,0.8,0.5,1.2,0.5c0.5,0,0.9-0.2,1.2-0.5
		c0.6-0.7,0.6-1.7,0-2.5C121,191.3,120.6,191.2,120.1,191.2z"/>
	<path class="st1" d="M120.1,189.6c0.4,0,0.8-0.2,1-0.4c0.5-0.6,0.5-1.5,0-2.1c-0.3-0.3-0.6-0.4-1-0.4s-0.8,0.2-1,0.4
		c-0.5,0.6-0.5,1.5,0,2.1C119.4,189.4,119.7,189.6,120.1,189.6z"/>
	<path class="st1" d="M81.5,164.7c2.8-3.9,4.5-4.3,10.6-4.2h1.2C87,149,83.1,136.4,81.9,123.2c0,0-1.5-16,2-28.8
		c0,0,8.7,3.6,21.8,5.8c11.5-9.1,27.7-9.1,39.2,0c13.1-2.2,21.8-5.8,21.8-5.8c3.5,12.8,2,28.8,2,28.8c-1.2,13.1-5.1,25.7-11.5,37.3
		h1c6.2-0.2,7.8,0.3,10.6,4.2c0,0-5.2-0.2-7.6,0.9c0,0,6.5,1.4,8.4,4.4c27.6-47.8,7.9-93,7.9-93.1c-1.9-4.5-5.5-10.8-12.1-10.8
		c-3.5-0.1-6.5,2.7-6.6,6.3c-0.1,3.5,2.7,6.5,6.3,6.6l0,0c0.1,0,0.3,0.1,0.3,0.2c0,0.1,0,0.1-0.1,0.2c-1.9,1.9-7.9,5.3-16.5,6.6
		c-16.1,2.6-18.4-5.8-18.7-7c0.7-0.2,2-0.7,2-1.7c-0.1-0.8-0.3-1.1-1-1.2h-1c0-1.1,0.5-2.1,1.4-2.7c0.6-0.4,1.2-0.7,1.9-1
		c0.7-0.2,0.9-0.9,1-1.7c-0.1-0.8-0.3-1.1-1-1.2h-15.8c-0.7,0.2-0.9,0.4-1,1.2c0.1,0.8,0.3,1.6,1,1.7c0.6,0.3,1.2,0.6,1.9,1
		c0.9,0.6,1.4,1.6,1.4,2.7h-1c-0.7,0.2-0.9,0.4-1,1.2c0,1.1,1.2,1.6,1.9,1.7c-0.2,1.1-2.5,9.6-18.7,7c-8.7-1.4-14.6-4.8-16.5-6.6
		c-0.1-0.1-0.1-0.3,0-0.3c0.1-0.1,0.1-0.1,0.2-0.1l0,0c3.5-0.1,6.4-3,6.3-6.6c-0.1-3.6-3-6.4-6.6-6.3c-6.6-0.1-10.2,6.3-12,10.8
		c-0.1,0.1-19.7,45.1,7.8,92.9c2.1-2.8,8.3-4.2,8.3-4.2C86.8,164.5,81.5,164.7,81.5,164.7z"/>
	<path class="st1" d="M156.2,170.3c-1.7,0.5-3.4,0.4-5.1-0.1c-2,2.8-4.1,5.5-6.3,8.1h-38.9c-2.3-2.7-4.4-5.4-6.4-8.2
		c-1.7,0.6-3.5,0.7-5.3,0.2c-4.1-1.1-10,0.1-12.6,0.7c9,15.2,22.9,30.7,43.7,45.1c20.8-14.3,34.6-29.8,43.7-45
		C166.4,170.4,160.3,169.1,156.2,170.3z M114.5,195.9c0,0.1-0.1,0.2-0.1,0.2h-0.1h-5.4c-0.1,0-0.2-0.1-0.2-0.1v-0.1v-1.2
		c0-0.1,0.1-0.2,0.1-0.2h0.1h1.7c0.1,0,0.1,0,0.1-0.1l0,0v-7l0,0l-1.8,1.1c-0.1,0.1-0.2,0.1-0.2-0.1v-1.6c0-0.1,0.1-0.2,0.1-0.2
		l1.9-1.2c0.1-0.1,0.2-0.1,0.3-0.1h1.3c0.1,0,0.2,0.1,0.2,0.1v0.1v8.9c0,0.1,0.1,0.1,0.1,0.1h1.7c0.1,0,0.2,0.1,0.2,0.1v0.1
		L114.5,195.9z M122.6,195.3c-1.4,1.2-3.5,1.2-5,0c-0.7-0.6-1-1.4-1-2.3c0-0.5,0.1-1.1,0.4-1.5c0.2-0.4,0.6-0.8,1-1v-0.1
		c-0.3-0.2-0.6-0.5-0.8-0.9c-0.2-0.4-0.3-0.9-0.3-1.3c0-0.8,0.3-1.6,0.9-2.2c1.3-1.2,3.4-1.2,4.7,0c0.6,0.6,0.9,1.3,0.9,2.2
		c0,0.5-0.1,0.9-0.3,1.3s-0.5,0.7-0.8,0.9v0.1c0.4,0.3,0.7,0.6,1,1c0.3,0.5,0.4,1,0.4,1.5C123.6,193.9,123.3,194.7,122.6,195.3z
		 M131.8,195.3c-1.4,1.2-3.5,1.2-5,0c-0.7-0.6-1-1.4-1-2.3c0-0.5,0.1-1.1,0.4-1.5c0.2-0.4,0.6-0.8,1-1v-0.1
		c-0.3-0.2-0.6-0.5-0.8-0.9c-0.2-0.4-0.3-0.9-0.3-1.3c0-0.8,0.3-1.6,0.9-2.2c1.3-1.2,3.4-1.2,4.7,0c0.6,0.6,0.9,1.3,0.9,2.2
		c0,0.5-0.1,0.9-0.3,1.3s-0.5,0.7-0.8,0.9v0.1c0.4,0.3,0.7,0.6,1,1c0.3,0.5,0.4,1,0.4,1.5C132.8,193.9,132.5,194.7,131.8,195.3z
		 M141.3,194.2c-0.2,0.6-0.6,1.1-1.1,1.5c-0.6,0.4-1.3,0.6-2.1,0.5c-1,0.1-1.9-0.2-2.7-0.7c-0.1-0.1-0.2-0.2-0.1-0.3v-2
		c0-0.1,0.1-0.2,0.1-0.2c0,0,0,0,0.1,0h1.3c0.1,0,0.2,0.1,0.2,0.1v0.1v1c0,0.1,0.1,0.1,0.1,0.2c0.4,0.2,0.8,0.3,1.1,0.3
		c0.7,0.1,1.3-0.3,1.5-0.9c0.1-0.4,0.2-0.8,0.2-1.2s-0.1-0.8-0.2-1.2c-0.2-0.6-0.7-0.9-1.3-0.9c-0.5-0.1-1,0.3-1.3,0.7
		c-0.1,0.1-0.1,0.2-0.2,0.2h-1.3c-0.1,0-0.2-0.1-0.2-0.1v-0.1v-5.8c0-0.1,0.1-0.2,0.1-0.2h0.1h5.7c0.1,0,0.2,0.1,0.2,0.1v0.1v1.3
		c0,0.1-0.1,0.2-0.2,0.2H137c-0.1,0-0.1,0.1-0.1,0.1l0,0v2.4h0.1c0.5-0.4,1-0.5,1.6-0.5c1.4,0,2.3,0.6,2.7,1.7
		c0.2,0.6,0.3,1.2,0.3,1.9C141.6,193.1,141.5,193.7,141.3,194.2L141.3,194.2z"/>
	<path class="st0" d="M125.3,101.3c11.4,0,20.4,8.4,20.9,19.3c1.3,0.1,4,0.1,6.6,0c-0.6-14.3-12.2-25-27.5-25s-26.9,10.7-27.4,25
		l6.7-0.1C105,109.6,114,101.3,125.3,101.3z"/>
	<path class="st0" d="M97.9,155.1l-1.2-0.8c-0.2-0.1-3.5-2.2-3-8.7c0.5-6.4,8.5-12,8.8-12.2l0.8-0.6l0.6,0.8
		c5.3,7.4,1.4,10.6,1.2,10.7c-5.9,4.3-6.9,9.3-6.9,9.3L97.9,155.1z M102.8,135.7c-2,1.5-6.8,5.7-7.1,10.1c-0.2,2.9,0.5,4.7,1.1,5.8
		c0.8-2.1,2.8-5.6,7.1-8.7C104,142.6,105.9,140.6,102.8,135.7L102.8,135.7z"/>
	<path class="st0" d="M152.8,155.3l-0.3-1.6c0-0.1-0.9-5-5.8-9.3l-0.1-0.1c-0.1-0.1-4.4-4.5,0.4-11.3l0.6-0.9l0.8,0.7
		c0.3,0.3,7.7,6.4,8.1,12.7c0.4,6.4-2.2,8.5-2.5,8.7L152.8,155.3z M148.2,142.8c2.6,2.3,4.6,5.1,5.8,8.3c0.7-1.7,0.9-3.5,0.7-5.3
		c-0.3-4.3-4.6-8.8-6.5-10.5C145.5,139.7,147.9,142.5,148.2,142.8z"/>
	<path class="st0" d="M171.3,172.7l-1.5-0.5c-0.1,0-8.4-2.5-13.4-1c-5.8,1.6-10.3-2.7-10.6-3c-5-4.8-4.4-7.3-3.1-10
		c1.1-2.4,2.3-3.5,3.5-3.4c1.2,0.1,1.5,1.5,1.7,2.4c0.2,0.9,1.7,2.4,10.1,2.2c6.5-0.2,8.5,0.4,11.5,4.6l1.2,1.7l-2.1-0.1
		c-0.7,0-2,0-3.4,0.1c2.6,1,5.5,2.8,5.8,5.4L171.3,172.7z M160.2,168.8c2.6,0.1,5.3,0.4,7.9,1c-1.8-1.7-5.6-2.9-7.1-3.2l-3.1-0.7
		l2.9-1.3c1.5-0.7,4.1-0.9,5.9-0.9c-1.8-2-3.5-2.3-8.5-2.2c-5.2,0.1-11.4-0.2-12.2-3.9c-0.1-0.2-0.1-0.3-0.1-0.5
		c-0.5,0.6-0.9,1.3-1.3,2c-0.9,1.8-1.7,3.5,2.7,7.6l0,0c0.1,0.1,4,3.8,8.6,2.5C157.3,168.9,158.7,168.7,160.2,168.8L160.2,168.8z"/>
	<path class="st0" d="M79,172.7l0.2-1.5c0.3-2.6,3.2-4.4,5.8-5.4c-1.4-0.1-2.7-0.1-3.4-0.1l-2.1,0.1l1.2-1.7c3-4.2,5.1-4.8,11.5-4.6
		c8.4,0.2,9.9-1.3,10.1-2.2c0.2-0.9,0.5-2.3,1.7-2.4c1.5-0.1,2.8,2.1,3.5,3.4c0.1,0.3,2.2,5-3.1,10c-0.3,0.3-4.9,4.6-10.6,3
		c-5-1.4-13.3,1-13.4,1L79,172.7z M83.6,163.6c1.9,0.1,4.4,0.3,5.9,0.9l2.9,1.3l-3.1,0.7c-1.5,0.4-5.3,1.5-7.1,3.2
		c3-0.7,8.3-1.5,12.2-0.5c4.7,1.3,8.6-2.4,8.6-2.5l0,0c4.1-3.9,2.8-7.3,2.7-7.6c-0.4-0.7-0.8-1.3-1.3-1.9c-0.1,0.1-0.1,0.2-0.1,0.4
		c-0.8,3.6-6.9,4-12.2,3.9C87.1,161.4,85.4,161.7,83.6,163.6L83.6,163.6z"/>
</g>
<g id="Type">
	<path class="st1" d="M17.9,121.8c0-0.6,0.1-1.2,0.3-1.8c0.2-0.5,0.4-1,0.8-1.4c0.1-0.1,0.2-0.1,0.2-0.1l1.9,0.1
		c0.1,0,0.2,0.1,0.2,0.1c0,0,0,0,0,0.1l-0.1,1.4c0,0.1-0.1,0.2-0.2,0.2c0,0,0,0-0.1,0H20c-0.1,0-0.1,0-0.1,0.1
		c-0.3,0.5-0.5,1-0.5,1.6c0,1.1,0.4,1.9,1.3,2.2c0.8,0.2,1.6,0.3,2.4,0.3c0.8,0.1,1.6,0,2.4-0.2c0.4-0.1,0.8-0.4,1-0.7
		c0.3-0.4,0.4-0.9,0.4-1.4c0.1-0.6-0.1-1.2-0.3-1.7c-0.1-0.1-0.2-0.2-0.3-0.2l-2.1-0.1c-0.1,0-0.1,0.1-0.1,0.1l-0.1,1.6
		c0,0.1-0.1,0.2-0.2,0.2c0,0,0,0-0.1,0l-1.2-0.1c-0.1,0-0.2-0.1-0.2-0.1V122l0.1-3.3c0-0.1,0.1-0.2,0.2-0.2c0,0,0,0,0.1,0l4.4,0.1
		c0.2,0,0.3,0.1,0.4,0.2c0.7,1,1,2.3,0.9,3.4c-0.1,2.1-0.9,3.3-2.5,3.9c-1,0.2-2,0.3-2.9,0.2c-1,0-2-0.1-2.9-0.4
		C18.6,125.3,17.8,123.9,17.9,121.8z"/>
	<path class="st1" d="M18.5,114l0.9-7.3c0-0.1,0.1-0.2,0.2-0.2c0,0,0,0,0.1,0l2.4,0.3c0.1,0,0.2,0.1,0.2,0.2c0,0,0,0,0,0.1l-0.2,1.3
		c0,0.1-0.1,0.2-0.2,0.2c0,0,0,0-0.1,0l-0.8-0.1c-0.1,0-0.1,0-0.1,0.1l-0.4,3.1c0,0.1,0,0.1,0.1,0.1l2.6,0.3c0.1,0,0.1,0,0.1-0.1
		l0,0l0.3-2.1c0-0.1,0-0.1-0.1-0.1c0,0,0,0-0.1,0l-0.6-0.1c-0.1,0-0.2-0.1-0.2-0.2v-0.1l0.2-1.3c0-0.1,0.1-0.2,0.2-0.2
		c0,0,0,0,0.1,0l2.9,0.4c0.1,0,0.2,0.1,0.2,0.2v0.1l-0.2,1.3c0,0.1-0.1,0.2-0.2,0.2l-0.6-0.1c-0.1,0-0.1,0-0.1,0.1l0,0l-0.3,2.1
		c0,0.1,0,0.1,0.1,0.1l0,0l2.7,0.3c0.1,0,0.1,0,0.1-0.1l0.4-3.1c0-0.1,0-0.1-0.1-0.1l0,0l-0.9-0.1c-0.1,0-0.2-0.1-0.2-0.2v-0.1
		l0.2-1.3c0-0.1,0.1-0.2,0.2-0.2h0.1l2.5,0.3c0.1,0,0.2,0.1,0.2,0.2v0.1l-0.9,7.3c0,0.1-0.1,0.2-0.2,0.2h-0.1l-1.2-0.2
		c-0.1,0-0.2-0.1-0.2-0.2c0,0,0,0,0-0.1l0.1-0.7c0-0.1,0-0.1-0.1-0.1c0,0,0,0-0.1,0l-7.2-0.9c-0.1,0-0.1,0-0.1,0.1c0,0,0,0,0,0.1
		l-0.1,0.7c0,0.1-0.1,0.2-0.2,0.2c0,0,0,0-0.1,0l-1.2-0.2C18.6,114.3,18.5,114.2,18.5,114C18.5,114.1,18.5,114.1,18.5,114z"/>
	<path class="st1" d="M21.1,98.2c0.2-0.8,0.6-1.5,1.2-2.1c0.6-0.5,1.3-0.8,2.2-0.9c1,0,2,0.2,2.9,0.4c0.9,0.2,1.9,0.5,2.7,1
		c0.7,0.4,1.2,1,1.5,1.7c0.3,0.8,0.3,1.6,0.1,2.4c-0.2,0.8-0.6,1.5-1.2,2.1c-0.6,0.5-1.3,0.8-2.2,0.9c-1,0-2-0.2-2.9-0.4
		c-0.9-0.2-1.9-0.5-2.7-1c-0.7-0.4-1.2-1-1.5-1.7C20.9,99.9,20.8,99,21.1,98.2z M22.7,98.6c-0.3,0.8,0.1,1.7,0.9,2.2
		c0.7,0.4,1.5,0.6,2.3,0.8c0.8,0.3,1.5,0.4,2.4,0.4c1.1-0.1,2-1.1,1.9-2.2c-0.1-0.6-0.4-1.2-0.9-1.5c-0.7-0.4-1.5-0.6-2.3-0.8
		c-0.8-0.3-1.5-0.4-2.4-0.4C23.6,97.1,22.8,97.7,22.7,98.6z"/>
	<path class="st1" d="M23.5,90.3l1.7-4.6c0.3-0.9,0.9-1.6,1.6-2c1.4-0.6,3-0.1,3.9,1.1c0.4,0.5,0.5,1.2,0.5,1.8l3.3-0.3
		c0.1,0,0.1-0.1,0.1-0.1l0.3-0.7c0-0.1,0.1-0.1,0.2-0.1c0,0,0,0,0.1,0l1.1,0.4c0.1,0,0.1,0.1,0.1,0.2c0,0,0,0,0,0.1l-0.7,1.7
		c-0.1,0.1-0.1,0.2-0.2,0.2l-4.6,0.4l-0.6,1.5c0,0.1,0,0.1,0.1,0.1l0,0l2.5,0.9c0.1,0,0.1,0,0.1-0.1l0,0l0.3-0.7
		c0-0.1,0.1-0.1,0.2-0.1c0,0,0,0,0.1,0l1.1,0.4c0.1,0,0.1,0.1,0.1,0.2c0,0,0,0,0,0.1l-1.2,3.2c0,0.1-0.1,0.1-0.2,0.1c0,0,0,0-0.1,0
		L32,93.4c-0.1,0-0.1-0.1-0.1-0.2v-0.1l0.3-0.7c0-0.1,0-0.1-0.1-0.1l0,0l-6.8-2.6c-0.1-0.1-0.1,0-0.1,0.1L25,90.6
		c0,0.1-0.1,0.1-0.2,0.1h-0.1l-1.1-0.4C23.5,90.5,23.5,90.4,23.5,90.3C23.5,90.3,23.5,90.3,23.5,90.3z M26.7,86.3l-0.8,2
		c0,0.1,0,0.1,0.1,0.1l0,0l2.6,1c0.1,0,0.1,0,0.1-0.1l0,0l0.8-2c0.2-0.4,0.2-0.8,0-1.2c-0.2-0.4-0.5-0.7-0.8-0.8
		c-0.4-0.2-0.8-0.2-1.1,0C27.1,85.5,26.8,85.9,26.7,86.3z"/>
	<path class="st1" d="M30.1,74.6c0.3-0.6,0.7-1,1.1-1.5c0.4-0.4,0.8-0.7,1.3-0.9c0.1-0.1,0.2-0.1,0.3,0l1.6,0.8
		c0.1,0.1,0.1,0.1,0.1,0.2c0,0,0,0,0,0.1l-0.6,1.2c-0.1,0.1-0.1,0.1-0.2,0.1c0,0,0,0-0.1,0l-0.8-0.4c-0.1-0.1-0.1-0.1-0.2,0
		c-0.5,0.3-0.9,0.7-1.1,1.2c-0.5,1-0.5,1.9,0.3,2.6c0.6,0.5,1.3,1,2,1.3c0.7,0.4,1.4,0.7,2.2,0.9c0.4,0.1,0.9,0,1.2-0.2
		c0.4-0.3,0.8-0.6,1-1.1c0.3-0.5,0.5-1.1,0.5-1.7c0-0.1-0.1-0.2-0.2-0.3l-1.8-1c-0.1,0-0.1,0-0.1,0l0,0l-0.8,1.5
		c0,0.1-0.1,0.1-0.2,0.1c0,0,0,0-0.1,0l-1.1-0.6c-0.1,0-0.1-0.1-0.1-0.2v-0.1l1.5-3c0-0.1,0.1-0.1,0.2-0.1h0.1l3.9,2.1
		c0.2,0.1,0.2,0.2,0.3,0.4c0.2,1.2-0.1,2.5-0.7,3.5c-0.9,1.9-2.3,2.6-4,2.3c-1-0.3-1.9-0.6-2.7-1.1c-0.9-0.4-1.7-0.9-2.4-1.6
		C29.2,78.1,29.1,76.5,30.1,74.6z"/>
	<path class="st1" d="M34,67.9l1.9-2.9C36,65,36,64.9,36.1,65c0,0,0,0,0.1,0l1,0.7c0.1,0.1,0.1,0.1,0.1,0.2c0,0,0,0,0,0.1l-0.4,0.6
		c-0.1,0.1-0.1,0.1,0,0.1l0,0l6.1,3.9c0.1,0.1,0.1,0.1,0.1,0l0,0l0.4-0.6c0.1-0.1,0.1-0.1,0.2-0.1c0,0,0,0,0.1,0l1,0.7
		c0.1,0.1,0.1,0.1,0.1,0.2c0,0,0,0,0,0.1l-1.9,2.9c-0.1,0.1-0.1,0.1-0.2,0.1c0,0,0,0-0.1,0l-1-0.7c-0.1-0.1-0.1-0.1-0.1-0.2
		c0,0,0,0,0-0.1l0.4-0.6c0.1-0.1,0.1-0.1,0-0.1l0,0l-6.1-3.9c-0.1-0.1-0.1-0.1-0.1,0l0,0l-0.4,0.6c-0.1,0.1-0.1,0.1-0.2,0.1
		c0,0,0,0-0.1,0l-1-0.7C34,68.1,34,68.1,34,67.9L34,67.9z"/>
	<path class="st1" d="M40.4,58.9l1-1.3c0.1-0.1,0.2-0.1,0.3-0.1l8.7,3c0.1,0.1,0.1,0,0.1-0.1l0,0l0.3-0.4c0.1-0.1,0.1-0.1,0.2-0.1
		c0,0,0,0,0.1,0l0.9,0.7c0.1,0.1,0.1,0.1,0.1,0.2c0,0,0,0.1-0.1,0.1l-2,2.5c-0.1,0.1-0.1,0.1-0.2,0.1c0,0-0.1,0-0.1-0.1l-0.9-0.7
		c-0.1-0.1-0.1-0.1-0.1-0.2c0,0,0,0,0.1-0.1l0.4-0.5c0.1-0.1,0.1-0.1-0.1-0.1l-1.3-0.5l-2.2,2.8l0.8,1.2c0.1,0.1,0.1,0.1,0.2,0
		l0.4-0.5c0.1-0.1,0.1-0.1,0.2-0.1c0,0,0,0,0.1,0.1l0.9,0.7c0.1,0.1,0.1,0.1,0.1,0.2c0,0,0,0-0.1,0.1l-2,2.5
		c-0.1,0.1-0.1,0.1-0.2,0.1c0,0,0,0-0.1-0.1l-0.9-0.7C45,67.5,45,67.5,45,67.4l0,0l0.3-0.4c0.1-0.1,0.1-0.1,0-0.2l-5-7.8
		C40.3,59.1,40.3,59,40.4,58.9z M42.6,59.7l2.1,3.2l1.5-2L42.6,59.7L42.6,59.7z"/>
	<path class="st1" d="M50.3,47.7l2.5-2.4c0.1-0.1,0.1-0.1,0.2-0.1c0,0,0,0,0.1,0.1l0.8,0.9c0.1,0.1,0.1,0.1,0.1,0.2c0,0,0,0-0.1,0.1
		L53.4,47c-0.1,0-0.1,0.1,0,0.1l0,0l5,5.3c0,0.1,0.1,0.1,0.1,0l0,0l0.6-0.5c0.1-0.1,0.1-0.1,0.2-0.1c0,0,0,0,0.1,0.1l0.8,0.9
		c0.1,0.1,0.1,0.1,0.1,0.2c0,0,0,0-0.1,0.1l-2.5,2.4c-0.1,0.1-0.1,0.1-0.2,0.1c0,0,0,0-0.1-0.1l-0.8-0.9c-0.1-0.1-0.1-0.1-0.1-0.2
		c0,0,0,0,0.1-0.1l0.5-0.5c0.1-0.1,0.1-0.1,0-0.1l0,0l-5-5.3c-0.1-0.1-0.1-0.1-0.1,0l0,0l-0.6,0.5c-0.1,0.1-0.1,0.1-0.2,0.1
		c0,0,0,0-0.1-0.1L50.3,48C50.2,47.9,50.2,47.8,50.3,47.7L50.3,47.7z"/>
	<path class="st1" d="M60.7,38.8l2.6-2c0.1-0.1,0.2-0.1,0.2,0c0,0,0,0,0,0.1l0.7,0.9c0.1,0.1,0.1,0.2,0,0.2c0,0,0,0-0.1,0l-0.6,0.5
		c-0.1,0-0.1,0.1,0,0.1l0,0l5.3,6.9c0.1,0.1,0.1,0.2,0,0.2l0,0l-1.1,0.8c-0.1,0.1-0.2,0.1-0.3,0.1l-7.8-3.1l-0.1,0.1l3.5,4.6
		c0.1,0.1,0.1,0.1,0.1,0l0,0l0.6-0.5c0.1-0.1,0.2-0.1,0.2,0l0,0l0.7,1c0.1,0.1,0.1,0.2,0,0.2c0,0,0,0-0.1,0l-2.6,2
		c-0.1,0.1-0.2,0.1-0.2,0c0,0,0,0,0-0.1l-0.8-0.9c-0.1-0.1-0.1-0.1-0.1-0.2c0,0,0,0,0.1-0.1l0.6-0.5c0.1-0.1,0.1-0.1,0-0.1l0,0
		l-4.4-5.8c-0.1-0.1-0.1-0.1-0.1,0l0,0l-0.6,0.5c-0.1,0.1-0.2,0.1-0.2,0c0,0,0,0,0-0.1l-0.7-0.9c-0.1-0.1-0.1-0.2,0-0.2
		c0,0,0,0,0.1-0.1l1.9-1.4C57.8,41,57.9,41,58,41l7.8,3.1l0.1-0.1l-3.5-4.6c-0.1-0.1-0.1-0.1-0.1,0l0,0l-0.6,0.5
		C61.6,40,61.6,40,61.5,40c0,0,0,0-0.1-0.1L60.8,39C60.7,39,60.7,39,60.7,38.8C60.5,38.9,60.6,38.8,60.7,38.8z"/>
	<path class="st1" d="M70.1,32.3c0.9-0.6,2-0.9,3-0.9c0.1,0,0.2,0.1,0.2,0.1l1,1.7c0.1,0.1,0.1,0.2,0,0.2c0,0,0,0-0.1,0l-1.2,0.7
		c-0.1,0.1-0.2,0.1-0.2,0c0,0,0,0,0-0.1l-0.5-0.8c0-0.1-0.1-0.1-0.2-0.1c-0.5,0.1-1,0.3-1.4,0.6c-0.4,0.2-0.7,0.6-0.9,1
		c-0.1,0.4-0.1,0.8,0.2,1.1c0.2,0.3,0.5,0.6,0.9,0.6c0.5,0.1,1-0.1,1.5-0.3l0.5-0.2c2-0.8,3.3-0.5,4.3,1c0.5,0.7,0.6,1.6,0.4,2.5
		c-0.4,1-1.1,1.7-2,2.2c-1,0.6-2.2,1-3.3,1c-0.1,0-0.2-0.1-0.2-0.1l-1.1-1.8c-0.1-0.1-0.1-0.2,0-0.2c0,0,0,0,0.1,0l1.2-0.7
		c0.1-0.1,0.2-0.1,0.2,0c0,0,0,0,0,0.1l0.5,0.9c0,0.1,0.1,0.1,0.1,0.1c0.6-0.1,1.2-0.3,1.7-0.6c0.5-0.3,0.8-0.6,1-1.1
		c0.2-0.4,0.1-0.9-0.2-1.2c-0.2-0.3-0.5-0.6-0.9-0.6c-0.5-0.1-1.1,0.1-1.5,0.3l-0.5,0.2c-2,0.8-3.3,0.5-4.2-1
		c-0.5-0.7-0.6-1.6-0.4-2.5C68.5,33.4,69.2,32.7,70.1,32.3z"/>
	<path class="st1" d="M76.7,28.7l7.5-3.4c0.1-0.1,0.2,0,0.2,0.1c0,0,0,0,0,0.1l1,2.2c0.1,0.1,0.1,0.2-0.1,0.2h-0.1l-1.2,0.6
		c-0.1,0.1-0.2,0-0.2-0.1c0,0,0,0,0-0.1l-0.4-0.8c0-0.1-0.1-0.1-0.1-0.1l0,0L82,28c-0.1,0-0.1,0.1-0.1,0.1l0,0l3,6.5
		c0,0.1,0.1,0.1,0.1,0.1l0,0l0.7-0.4c0.1-0.1,0.2-0.1,0.2,0.1v0.1l0.5,1.1c0.1,0.1,0,0.2-0.1,0.2c0,0,0,0-0.1,0l-3.3,1.5
		c-0.1,0.1-0.2,0-0.2-0.1c0,0,0,0,0-0.1L82.4,36c-0.1-0.1,0-0.2,0.1-0.2c0,0,0,0,0.1,0l0.7-0.4c0.1,0,0.1-0.1,0.1-0.1l0,0l-3-6.5
		c0-0.1-0.1-0.1-0.1-0.1l0,0l-1.4,0.7c-0.1,0-0.1,0.1-0.1,0.1l0,0l0.4,0.8c0.1,0.1,0,0.2-0.1,0.2c0,0,0,0-0.1,0l-1.2,0.6
		c-0.1,0.1-0.2,0.1-0.2-0.1V31l-1-2.2C76.5,28.8,76.6,28.8,76.7,28.7C76.6,28.7,76.7,28.7,76.7,28.7z"/>
	<path class="st1" d="M87.6,24l3.3-1.2c0.1-0.1,0.2,0,0.2,0.1c0,0,0,0,0,0.1l0.4,1.1c0.1,0.1,0,0.2-0.1,0.2c0,0,0,0-0.1,0l-0.7,0.3
		c-0.1,0-0.1,0.1-0.1,0.1l0,0l2.5,6.8c0,0.1,0.1,0.1,0.1,0.1l0,0l0.7-0.3c0.1-0.1,0.2,0,0.2,0.1c0,0,0,0,0,0.1l0.4,1.1
		c0.1,0.1,0,0.2-0.1,0.2c0,0,0,0-0.1,0l-3.3,1.2c-0.1,0.1-0.2,0-0.2-0.1c0,0,0,0,0-0.1l-0.4-1.1c-0.1-0.1,0-0.2,0.1-0.2
		c0,0,0,0,0.1,0l0.7-0.3c0.1,0,0.1-0.1,0.1-0.1l0,0l-2.5-6.8c0-0.1-0.1-0.1-0.1-0.1l0,0l-0.7,0.3c-0.1,0.1-0.2,0-0.2-0.1
		c0,0,0,0,0-0.1l-0.4-1.1C87.5,24.1,87.5,24,87.6,24L87.6,24z"/>
	<path class="st1" d="M94.3,21.6l8-2.1c0.1-0.1,0.2,0,0.2,0.1c0,0,0,0,0,0.1l0.6,2.4c0.1,0.1,0,0.2-0.1,0.2c0,0,0,0-0.1,0l-1.3,0.4
		c-0.1,0.1-0.2,0-0.2-0.1v-0.1l-0.2-0.9c0-0.1-0.1-0.1-0.1-0.1L99.7,22c-0.1,0-0.1,0.1-0.1,0.1l0,0l1.8,6.9c0,0.1,0.1,0.1,0.1,0.1
		l0,0l0.8-0.2c0.1-0.1,0.2,0,0.2,0.1c0,0,0,0,0,0.1l0.3,1.2c0.1,0.1,0,0.2-0.1,0.2c0,0,0,0-0.1,0l-3.5,0.9c-0.1,0.1-0.2,0-0.2-0.1
		c0,0,0,0,0-0.1l-0.3-1.2c-0.1-0.1,0-0.2,0.1-0.2c0,0,0,0,0.1,0l0.8-0.2c0.1,0,0.1-0.1,0.1-0.1l0,0l-1.8-6.9c0-0.1-0.1-0.1-0.1-0.1
		l0,0l-1.5,0.4c-0.1,0-0.1,0.1-0.1,0.1l0,0l0.2,0.9c0.1,0.1,0,0.2-0.1,0.2h-0.1L95,24.3c-0.1,0.1-0.2,0-0.2-0.1v-0.1l-0.6-2.4
		C94.2,21.8,94.3,21.7,94.3,21.6C94.3,21.6,94.3,21.6,94.3,21.6z"/>
	<path class="st1" d="M111.7,18l3.4-0.5c0.1,0,0.2,0,0.2,0.1c0,0,0,0,0,0.1l0.2,1.2c0,0.1,0,0.2-0.1,0.2c0,0,0,0-0.1,0l-0.7,0.1
		c-0.1,0-0.1,0.1-0.1,0.1l0.7,5.1c0.2,1-0.1,2.1-0.7,2.9c-1.4,1.6-3.7,1.9-5.5,0.8c-0.8-0.6-1.3-1.6-1.4-2.6l-0.7-5.1
		c0-0.1-0.1-0.1-0.1-0.1l0,0l-0.7,0.1c-0.1,0-0.2,0-0.2-0.1c0,0,0,0,0-0.1l-0.2-1.2c0-0.1,0-0.2,0.1-0.2h0.1l3.4-0.5
		c0.1,0,0.2,0.1,0.2,0.2l0.2,1.2c0,0.1,0,0.2-0.1,0.2c0,0,0,0-0.1,0l-0.7,0.1c-0.1,0-0.1,0.1-0.1,0.1l0.7,5.1
		c0.1,0.6,0.3,1.1,0.8,1.5c0.9,0.7,2.2,0.5,2.9-0.4c0.3-0.5,0.5-1.1,0.3-1.7l-0.7-5.1c0-0.1-0.1-0.1-0.1-0.1s0,0-0.1,0l-0.7,0.1
		c-0.1,0-0.2,0-0.2-0.1v-0.1l-0.2-1.2c0-0.1,0-0.2,0.1-0.2C111.7,18,111.7,18,111.7,18z"/>
	<path class="st1" d="M118.7,17.3l8.3-0.2c0.1,0,0.2,0.1,0.2,0.2l0.1,2.5c0,0.1-0.1,0.2-0.1,0.2c0,0,0,0-0.1,0h-1.3
		c-0.1,0-0.2-0.1-0.2-0.1c0,0,0,0,0-0.1v-0.9c0-0.1-0.1-0.1-0.1-0.1l0,0l-1.5,0.1c-0.1,0-0.1,0.1-0.1,0.1l0.2,7.1
		c0,0.1,0.1,0.1,0.1,0.1h0.8c0.1,0,0.2,0.1,0.2,0.1v0.1v1.2c0,0.1-0.1,0.2-0.1,0.2h-0.1l-3.6,0.1c-0.1,0-0.2-0.1-0.2-0.1v-0.1v-1.2
		c0-0.1,0.1-0.2,0.1-0.2c0,0,0,0,0.1,0h0.8c0.1,0,0.1-0.1,0.1-0.1l0,0L122,19c0-0.1-0.1-0.1-0.1-0.1l0,0l-1.5,0.1
		c-0.1,0-0.1,0.1-0.1,0.1v0.9c0,0.1-0.1,0.2-0.1,0.2c0,0,0,0-0.1,0l-1.3,0.1c-0.1,0-0.2-0.1-0.2-0.1c0,0,0,0,0-0.1l-0.1-2.5
		C118.5,17.4,118.6,17.3,118.7,17.3L118.7,17.3z"/>
	<path class="st1" d="M130.8,17.3l7.4,0.7c0.1,0,0.2,0.1,0.2,0.1v0.1l-0.2,2.4c0,0.1-0.1,0.1-0.1,0.1l-1.3-0.1
		c-0.1,0-0.2-0.1-0.2-0.2l0.1-0.8c0-0.1,0-0.1-0.1-0.1l-3.1-0.3c-0.1,0-0.1,0-0.1,0.1l0,0l-0.2,2.6c0,0.1,0,0.1,0.1,0.1l2.1,0.2
		c0.1,0,0.1,0,0.1-0.1c0,0,0,0,0-0.1l0.1-0.6c0-0.1,0.1-0.2,0.2-0.2l1.3,0.1c0.1,0,0.2,0.1,0.2,0.2l0,0l-0.3,2.9
		c0,0.1-0.1,0.2-0.2,0.2c0,0,0,0-0.1,0l-1.3-0.1c-0.1,0-0.2-0.1-0.2-0.1v-0.1l0.1-0.6c0-0.1,0-0.1-0.1-0.1l-2.1-0.2
		c-0.1,0-0.1,0-0.1,0.1l0,0l-0.3,2.7c0,0.1,0,0.1,0.1,0.1l3.1,0.3c0.1,0,0.1,0,0.1-0.1l0,0l0.1-0.9c0-0.1,0.1-0.2,0.2-0.2
		c0,0,0,0,0.1,0l1.3,0.1c0.1,0,0.2,0.1,0.2,0.1v0.1l-0.2,2.5c0,0.1-0.1,0.2-0.1,0.2h-0.1l-7.4-0.7c-0.1,0-0.2-0.1-0.2-0.2
		c0,0,0,0,0-0.1l0.1-1.2c0-0.1,0.1-0.2,0.2-0.2l0.8,0.2c0.1,0,0.1,0,0.1-0.1l0,0l0.6-7.2c0-0.1,0-0.1-0.1-0.1l-0.7-0.1
		c-0.1,0-0.2-0.1-0.2-0.2c0,0,0,0,0-0.1l0.1-1.2C130.6,17.3,130.7,17.3,130.8,17.3z"/>
	<path class="st1" d="M152.3,20.5c0.8,0.2,1.5,0.6,2.1,1.2c0.5,0.6,0.8,1.4,0.8,2.2c0,1-0.2,2-0.5,2.9c-0.2,0.9-0.5,1.9-1,2.7
		c-0.4,0.7-1,1.2-1.8,1.5c-1.6,0.5-3.3,0-4.5-1.2c-0.5-0.6-0.8-1.4-0.8-2.2c0-1,0.2-2,0.4-2.9c0.2-0.9,0.5-1.9,1-2.7
		c0.4-0.7,1-1.2,1.8-1.5C150.7,20.3,151.6,20.3,152.3,20.5z M151.9,22.1c-0.8-0.3-1.7,0.1-2.2,0.8c-0.4,0.7-0.6,1.5-0.8,2.3
		c-0.3,0.8-0.4,1.5-0.4,2.4c0.1,1.1,1.1,2,2.2,1.9c0.6-0.1,1.2-0.4,1.5-0.9c0.4-0.7,0.6-1.5,0.8-2.3c0.3-0.8,0.4-1.5,0.4-2.4
		C153.5,23,152.8,22.2,151.9,22.1L151.9,22.1z"/>
	<path class="st1" d="M160.2,22.9l6.9,2.7c0.1,0,0.1,0.1,0.1,0.2c0,0,0,0,0,0.1l-0.9,2.3c0,0.1-0.1,0.1-0.2,0.1c0,0,0,0-0.1,0
		l-1.2-0.5c-0.1,0-0.1-0.1-0.1-0.2c0,0,0,0,0-0.1l0.3-0.9c0-0.1,0-0.1-0.1-0.1l0,0l-2.9-1.1c-0.1,0-0.1,0-0.1,0.1l0,0l-1,2.5
		c0,0.1,0,0.1,0.1,0.1l0,0l2,0.8c0.1,0,0.1,0,0.1-0.1l0,0l0.2-0.5c0-0.1,0.1-0.1,0.2-0.1c0,0,0,0,0.1,0l1.2,0.5
		c0.1,0,0.1,0.1,0.1,0.2c0,0,0,0,0,0.1l-1,2.7c0,0.1-0.1,0.1-0.2,0.1c0,0,0,0-0.1,0l-1.2-0.5c-0.1,0-0.1-0.1-0.1-0.2c0,0,0,0,0-0.1
		l0.2-0.5c0-0.1,0-0.1-0.1-0.1l0,0l-2-0.8c-0.1,0-0.1,0-0.1,0.1l0,0l-1,2.5c0,0.1,0,0.1,0.1,0.1l0,0l0.9,0.4c0.1,0,0.1,0.1,0.1,0.2
		c0,0,0,0,0,0.1l-0.4,1.1c0,0.1-0.1,0.1-0.2,0.1h-0.1l-3.4-1.3c-0.1,0-0.1-0.1-0.1-0.2c0,0,0,0,0-0.1l0.4-1.1c0-0.1,0.1-0.1,0.2-0.1
		c0,0,0,0,0.1,0l0.7,0.3c0.1,0,0.1,0,0.1-0.1l0,0l2.6-6.8c0-0.1,0-0.1-0.1-0.1l0,0l-0.7-0.3c-0.1,0-0.1-0.1-0.1-0.2c0,0,0,0,0-0.1
		l0.5-1.1C160.1,23,160.2,22.9,160.2,22.9L160.2,22.9z"/>
	<path class="st1" d="M175.9,29.8l7.1,4.2c0.1,0.1,0.1,0.1,0.1,0.2c0,0,0,0,0,0.1l-1.2,2.1c0,0.1-0.1,0.1-0.2,0.1h-0.1l-1.1-0.7
		c-0.1-0.1-0.1-0.1-0.1-0.2c0,0,0,0,0-0.1l0.5-0.8c0.1-0.1,0-0.1,0-0.1l0,0l-1.3-0.8c-0.1-0.1-0.1,0-0.1,0l0,0l-3.6,6.2
		c-0.1,0.1,0,0.1,0,0.1l0,0l0.7,0.4c0.1,0.1,0.1,0.1,0.1,0.2c0,0,0,0,0,0.1l-0.6,1c-0.1,0.1-0.1,0.1-0.2,0.1c0,0,0,0-0.1,0l-3.1-1.8
		c-0.1-0.1-0.1-0.1-0.1-0.2c0,0,0,0,0-0.1l0.6-1c0.1-0.1,0.1-0.1,0.2-0.1c0,0,0,0,0.1,0l0.7,0.4c0.1,0.1,0.1,0,0.1,0l0,0l3.6-6.2
		c0.1-0.1,0-0.1,0-0.1l0,0l-1.3-0.8c-0.1-0.1-0.1,0-0.1,0l0,0l-0.5,0.8c-0.1,0.1-0.1,0.1-0.2,0.1c0,0,0,0-0.1,0l-1.1-0.7
		c-0.1-0.1-0.1-0.1-0.1-0.2c0,0,0,0,0-0.1l1.2-2.1C175.8,29.8,175.8,29.7,175.9,29.8z"/>
	<path class="st1" d="M186.2,36.1l6,4.4c0.1,0.1,0.1,0.1,0.1,0.2c0,0,0,0,0,0.1l-1.4,1.9c-0.1,0.1-0.1,0.1-0.2,0.1c0,0,0,0-0.1,0
		l-1.1-0.8c-0.1-0.1-0.1-0.1-0.1-0.2c0,0,0,0,0-0.1l0.5-0.7c0.1-0.1,0.1-0.1,0-0.1l0,0l-2.5-1.9c-0.1-0.1-0.1-0.1-0.1,0l0,0
		l-1.5,2.1c-0.1,0.1-0.1,0.1,0,0.1l0,0l1.7,1.2c0.1,0.1,0.1,0.1,0.1,0l0,0l0.3-0.5c0.1-0.1,0.1-0.1,0.2-0.1c0,0,0,0,0.1,0l1,0.8
		c0.1,0.1,0.1,0.1,0.1,0.2c0,0,0,0,0,0.1l-1.7,2.3c-0.1,0.1-0.1,0.1-0.2,0.1c0,0,0,0-0.1,0l-1-0.8c-0.1-0.1-0.1-0.1-0.1-0.2
		c0,0,0,0,0-0.1l0.3-0.5c0.1-0.1,0.1-0.1,0-0.1l0,0l-1.7-1.2c-0.1-0.1-0.1-0.1-0.1,0l0,0l-1.6,2.2c-0.1,0.1-0.1,0.1,0,0.1l0,0
		l2.5,1.9c0,0.1,0.1,0.1,0.1,0l0,0l0.6-0.7c0.1-0.1,0.1-0.1,0.2-0.1c0,0,0.1,0,0.1,0.1l1.1,0.8c0.1,0.1,0.1,0.1,0.1,0.2
		c0,0,0,0,0,0.1l-1.4,2c-0.1,0.1-0.1,0.1-0.2,0.1c0,0,0,0-0.1,0l-6-4.4c-0.1-0.1-0.1-0.1-0.1-0.2c0,0,0,0,0-0.1l0.7-1
		c0.1-0.1,0.1-0.1,0.2-0.1c0,0,0,0,0.1,0l0.6,0.5c0.1,0.1,0.1,0.1,0.1,0l0,0l4.3-5.8c0.1-0.1,0.1-0.1,0-0.1l0,0l-0.6-0.5
		c-0.1-0.1-0.1-0.1-0.1-0.2c0,0,0,0,0-0.1l0.7-1C186.1,36,186.2,36,186.2,36.1C186.2,36,186.2,36,186.2,36.1z"/>
	<path class="st1" d="M198.7,46c0.8,0.7,1.4,1.6,1.7,2.7c0.1,0.1,0,0.2-0.1,0.3l-1.4,1.5c-0.1,0.1-0.1,0.1-0.2,0.1c0,0,0,0-0.1-0.1
		l-1-0.9c-0.1-0.1-0.1-0.1-0.1-0.2c0,0,0,0,0.1-0.1l0.7-0.8c0.1-0.1,0.1-0.1,0-0.2c-0.2-0.4-0.5-0.8-0.8-1.1
		c-0.4-0.4-0.8-0.6-1.3-0.7c-0.4-0.1-0.9,0.1-1.2,0.3c-0.7,0.5-1.2,1-1.7,1.6c-0.6,0.6-1.1,1.2-1.5,1.9c-0.2,0.4-0.3,0.8-0.2,1.2
		c0.2,0.5,0.4,0.9,0.8,1.2c0.3,0.3,0.7,0.6,1.1,0.7c0.1,0,0.1,0,0.2-0.1l0.8-0.8c0.1-0.1,0.2-0.1,0.2-0.1c0,0,0,0,0.1,0.1l1,0.9
		c0.1,0.1,0.1,0.1,0.1,0.2c0,0,0,0-0.1,0.1l-1.4,1.5c-0.1,0.1-0.2,0.1-0.3,0.1c-1.1-0.3-2.1-0.8-2.8-1.5c-1.4-1.4-1.9-2.8-1.1-4.4
		c0.5-0.9,1.1-1.6,1.8-2.3c0.6-0.7,1.3-1.4,2.1-1.9C195.7,44.4,197.2,44.6,198.7,46z"/>
	<path class="st1" d="M207.7,55.8l2.3,2.6c0.1,0.1,0.1,0.1,0.1,0.2c0,0,0,0-0.1,0.1l-0.9,0.8c-0.1,0.1-0.2,0.1-0.2,0l0,0l-0.5-0.6
		c0-0.1-0.1-0.1-0.1,0l0,0l-5.6,4.7c-0.1,0.1-0.1,0.1,0,0.1l0,0l0.5,0.6c0.1,0.1,0.1,0.2,0.1,0.2c0,0,0,0-0.1,0.1l-1,0.8
		c-0.1,0.1-0.2,0.1-0.2,0.1c0,0,0,0-0.1-0.1l-2.3-2.6c-0.1-0.1-0.1-0.2-0.1-0.2c0,0,0,0,0.1-0.1l0.9-0.8c0.1-0.1,0.2-0.1,0.2-0.1
		c0,0,0,0,0.1,0.1l0.5,0.6c0,0.1,0.1,0.1,0.1,0l0,0l2.1-1.8c0.1-0.1,0.1-0.1,0-0.1l0,0l-2.4-2.9c-0.1-0.1-0.1-0.1-0.1,0l0,0
		l-2.1,1.8c-0.1,0.1-0.1,0.1,0,0.1l0,0l0.5,0.6c0.1,0.1,0.1,0.1,0.1,0.2c0,0,0,0-0.1,0.1l-0.9,0.8c-0.1,0.1-0.1,0.1-0.2,0.1
		c0,0,0,0-0.1-0.1l-2.3-2.6c-0.1-0.1-0.1-0.1-0.1-0.2c0,0,0,0,0.1-0.1l0.9-0.8c0.1-0.1,0.1-0.1,0.2-0.1c0,0,0,0,0.1,0.1l0.5,0.6
		c0,0.1,0.1,0.1,0.1,0l0,0l5.6-4.7c0.1,0,0.1-0.1,0-0.1l0,0l-0.5-0.6c-0.1-0.1-0.1-0.1-0.1-0.2c0,0,0,0,0.1-0.1l0.9-0.8
		c0.1-0.1,0.2-0.1,0.2-0.1c0,0,0,0,0.1,0.1l2.3,2.6c0.1,0.1,0.1,0.1,0.1,0.2c0,0,0,0-0.1,0.1l-0.9,0.8c-0.1,0.1-0.2,0.1-0.2,0.1
		c0,0,0,0-0.1-0.1l-0.5-0.6c0-0.1-0.1-0.1-0.1,0l0,0l-2.1,1.7c-0.1,0-0.1,0.1,0,0.1l0,0l2.5,2.9c0,0.1,0.1,0.1,0.1,0l0,0l2.1-1.7
		c0.1-0.1,0.1-0.1,0-0.1l0,0l-0.5-0.6c-0.1-0.1-0.1-0.1-0.1-0.2c0,0,0,0,0.1-0.1l0.9-0.8C207.5,55.8,207.6,55.7,207.7,55.8
		C207.6,55.7,207.7,55.8,207.7,55.8z"/>
	<path class="st1" d="M215.9,67l1.8,2.8c0.1,0.1,0.1,0.2,0,0.2c0,0,0,0-0.1,0l-1,0.7c-0.1,0.1-0.2,0.1-0.2,0c0,0,0,0,0-0.1L216,70
		c0-0.1-0.1-0.1-0.1-0.1l0,0l-7.3,4.8c-0.1,0.1-0.2,0.1-0.2,0c0,0,0,0,0-0.1l-0.8-1.1c-0.1-0.1-0.1-0.2,0-0.3l3.7-7.5l-0.1-0.1
		l-4.8,3.1c-0.1,0.1-0.1,0.1,0,0.1l0,0l0.4,0.6c0.1,0.1,0.1,0.2,0,0.2c0,0,0,0-0.1,0l-1,0.7c-0.1,0.1-0.2,0.1-0.2,0c0,0,0,0,0-0.1
		l-1.8-2.8c-0.1-0.1-0.1-0.2,0-0.2c0,0,0,0,0.1,0l1-0.7c0.1-0.1,0.2-0.1,0.2,0l0,0l0.4,0.6c0,0.1,0.1,0.1,0.1,0.1l0,0l6.1-4
		c0.1,0,0.1-0.1,0.1-0.1l0,0l-0.4-0.6c-0.1-0.1-0.1-0.2,0-0.2c0,0,0,0,0.1,0l1-0.7c0.1-0.1,0.2-0.1,0.2,0c0,0,0,0,0,0.1l1.3,2
		c0.1,0.1,0.1,0.2,0,0.3l-3.7,7.5l0.1,0.1l4.8-3.1c0.1,0,0.1-0.1,0.1-0.1l0,0l-0.4-0.6c-0.1-0.1-0.1-0.2,0-0.2c0,0,0,0,0.1,0l1-0.7
		C215.8,66.9,215.8,66.9,215.9,67z"/>
	<path class="st1" d="M221.7,77c0.4,0.7,0.6,1.5,0.5,2.4c-0.1,0.8-0.5,1.5-1.1,2.1c-1.5,1.2-3.3,2.1-5.1,2.5c-0.8,0.2-1.6,0-2.3-0.4
		c-0.7-0.4-1.3-1.1-1.6-1.8c-0.4-0.7-0.5-1.5-0.5-2.4c0.1-0.8,0.5-1.5,1.1-2.1c0.7-0.6,1.6-1.1,2.5-1.5c0.8-0.5,1.7-0.8,2.7-1
		c0.8-0.2,1.6,0,2.3,0.4C220.8,75.6,221.4,76.3,221.7,77z M220.2,77.7c-0.4-0.8-1.2-1.3-2.1-1.1c-1.5,0.5-3,1.2-4.3,2.1
		c-0.8,0.8-0.8,2.1,0,2.9c0.5,0.5,1.1,0.7,1.7,0.6c0.8-0.2,1.5-0.5,2.2-0.9c0.7-0.3,1.4-0.7,2.1-1.2
		C220.5,79.5,220.6,78.5,220.2,77.7L220.2,77.7z"/>
	<path class="st1" d="M225,84.6l1.2,3.3c0.1,0.1,0,0.2-0.1,0.2c0,0,0,0-0.1,0l-1.1,0.4c-0.1,0.1-0.2,0-0.2-0.1c0,0,0,0,0-0.1
		l-0.3-0.7c0-0.1-0.1-0.1-0.1-0.1l0,0l-6.7,2.4c-0.1,0-0.1,0.1-0.1,0.1c0,0,0,0,0,0.1l1,2.7c0,0.1,0.1,0.1,0.1,0.1l0,0l0.9-0.3
		c0.1-0.1,0.2,0,0.2,0.1c0,0,0,0,0,0.1l0.5,1.3c0.1,0.1,0,0.2-0.1,0.2c0,0,0,0-0.1,0l-2.3,0.8c-0.1,0.1-0.2,0-0.2-0.1c0,0,0,0,0-0.1
		l-2.5-6.8c-0.1-0.1,0-0.2,0.1-0.2c0,0,0,0,0.1,0l1.1-0.4c0.1-0.1,0.2,0,0.2,0.1c0,0,0,0,0,0.1l0.3,0.7c0,0.1,0.1,0.1,0.1,0.1
		c0,0,0,0,0.1,0l6.8-2.5c0.1,0,0.1-0.1,0.1-0.1l0,0l-0.3-0.7c-0.1-0.1,0-0.2,0.1-0.2c0,0,0,0,0.1,0l1.1-0.4
		C224.8,84.4,224.9,84.5,225,84.6C225,84.5,225,84.6,225,84.6z"/>
	<path class="st1" d="M229.7,99c0.2,0.8,0.2,1.6-0.1,2.4c-0.3,0.7-0.8,1.4-1.5,1.7c-0.9,0.5-1.8,0.8-2.7,1c-0.9,0.3-1.9,0.4-2.9,0.4
		c-0.8-0.1-1.5-0.4-2.2-0.9c-0.6-0.6-1-1.3-1.2-2.1c-0.2-0.8-0.2-1.6,0.1-2.4c0.3-0.7,0.8-1.4,1.5-1.7c0.9-0.5,1.8-0.8,2.7-1
		c0.9-0.3,1.9-0.4,2.9-0.4c0.8,0.1,1.5,0.4,2.2,0.9C229.1,97.4,229.5,98.2,229.7,99z M228.1,99.4c-0.2-0.9-0.9-1.5-1.8-1.5
		c-0.8,0.1-1.6,0.2-2.4,0.4c-0.8,0.2-1.5,0.4-2.3,0.8c-1,0.6-1.2,1.9-0.6,2.8c0.4,0.5,0.9,0.9,1.5,0.9c0.8-0.1,1.6-0.2,2.4-0.4
		c0.8-0.2,1.5-0.4,2.3-0.7C228,101.2,228.4,100.2,228.1,99.4z"/>
	<path class="st1" d="M232,111.5c0.1,0.6,0.1,1.2-0.1,1.9c-0.1,0.5-0.3,1-0.6,1.5c-0.1,0.1-0.1,0.1-0.2,0.2l-1.9,0.2
		c-0.1,0-0.2-0.1-0.2-0.2l-0.2-1.4c0-0.1,0-0.2,0.1-0.2c0,0,0,0,0.1,0l0.9-0.1c0.1,0,0.1-0.1,0.1-0.1c0.3-0.5,0.3-1.1,0.2-1.6
		c-0.2-1.1-0.7-1.8-1.6-2c-0.8-0.1-1.6-0.1-2.4,0.1c-0.8,0.1-1.6,0.3-2.3,0.5c-0.4,0.2-0.7,0.5-0.9,0.8c-0.2,0.5-0.3,1-0.2,1.4
		c0.1,0.6,0.3,1.2,0.6,1.6c0.1,0.1,0.2,0.2,0.3,0.1l2.1-0.3c0.1,0,0.1-0.1,0.1-0.1l-0.2-1.6c0-0.1,0-0.2,0.1-0.2h0.1l1.2-0.2
		c0.1,0,0.2,0,0.2,0.1v0.1l0.4,3.3c0,0.1,0,0.2-0.1,0.2h-0.1l-4.4,0.5c-0.2,0-0.3-0.1-0.4-0.2c-0.8-0.9-1.3-2.1-1.4-3.3
		c-0.3-2.1,0.4-3.4,2-4.2c0.9-0.4,1.9-0.6,2.9-0.6c1-0.2,2-0.2,2.9-0.1C230.7,108.2,231.7,109.4,232,111.5z"/>
	<path class="st1" d="M232.6,124l0.1,3.1c0,0.1-0.1,0.2-0.1,0.2h-0.1h-1.2c-0.1,0-0.2-0.1-0.2-0.1c0,0,0,0,0-0.1v-0.4
		c0-0.1-0.1-0.1-0.1-0.1l-4.6-2.6l-2.7,0.1c-0.1,0-0.1,0-0.1,0.1l0,0v0.8c0,0.1-0.1,0.2-0.1,0.2c0,0,0,0-0.1,0h-1.2
		c-0.1,0-0.2-0.1-0.2-0.1v-0.1l-0.1-3.5c0-0.1,0.1-0.2,0.1-0.2c0,0,0,0,0.1,0h1.2c0.1,0,0.2,0.1,0.2,0.1c0,0,0,0,0,0.1v0.8
		c0,0.1,0.1,0.1,0.1,0.1l0,0l2.7-0.1l4.6-2.7c0.1-0.1,0.1-0.1,0.1-0.2v-0.4c0-0.1,0.1-0.2,0.2-0.2h1.2c0.1,0,0.2,0.1,0.2,0.2
		l0.1,3.1c0,0.1-0.1,0.2-0.1,0.2h-0.1h-1.2c-0.1,0-0.2-0.1-0.2-0.1c0,0,0,0,0-0.1v-0.6c0-0.1-0.1-0.2-0.2-0.1l-2.9,1.6v0.1l3,1.6
		c0.1,0.1,0.1,0,0.1-0.1V124c0-0.1,0.1-0.2,0.2-0.2h1.2C232.5,123.9,232.6,123.9,232.6,124L232.6,124z"/>
	<path class="st1" d="M39.8,171.4l2.5,4.1c0.5,0.8,0.7,1.7,0.5,2.6c-0.5,1.7-2.3,2.8-4,2.4c-0.9-0.3-1.6-0.9-2.1-1.6l-1-1.7
		c0-0.1-0.1-0.1-0.1-0.1l0,0l-2,1.2c-0.1,0-0.1,0.1-0.1,0.1l0,0l0.5,0.8c0.1,0.1,0.1,0.2,0,0.2c0,0,0,0-0.1,0l-1,0.6
		c-0.1,0.1-0.2,0.1-0.2,0c0,0,0,0,0-0.1l-1.9-3.1c-0.1-0.1-0.1-0.2,0-0.2c0,0,0,0,0.1,0l1-0.6c0.1-0.1,0.2-0.1,0.2,0c0,0,0,0,0,0.1
		l0.4,0.6c0,0.1,0.1,0.1,0.1,0.1l0,0l6.2-3.7c0.1,0,0.1-0.1,0.1-0.1l0,0l-0.4-0.6c-0.1-0.1-0.1-0.2,0-0.2c0,0,0,0,0.1,0l1-0.6
		C39.6,171.3,39.7,171.3,39.8,171.4L39.8,171.4z M40.8,176.2l-1-1.7c0-0.1-0.1-0.1-0.1-0.1l0,0l-2.6,1.5c-0.1,0-0.1,0.1-0.1,0.1l0,0
		l1,1.7c0.2,0.4,0.6,0.7,1,0.9c0.4,0.1,0.9,0.1,1.2-0.2c0.4-0.2,0.7-0.6,0.8-1C41.2,177.1,41.1,176.6,40.8,176.2z"/>
	<path class="st1" d="M45.9,181.2l3,3.9c0.6,0.7,0.9,1.5,0.9,2.4c-0.2,1.5-1.4,2.6-2.9,2.7c-0.6,0-1.3-0.2-1.8-0.5l-1.5,2.9
		c-0.1,0.1-0.1,0.1,0,0.2l0.4,0.6c0.1,0.1,0.1,0.2,0,0.2l0,0l-0.9,0.7c-0.1,0.1-0.1,0.1-0.2,0c0,0,0,0-0.1-0.1l-1.1-1.5
		c-0.1-0.1-0.1-0.2,0-0.3l2.1-4.1l-1-1.3c-0.1-0.1-0.1-0.1-0.1,0l0,0l-2.1,1.6c-0.1,0.1-0.1,0.1,0,0.1l0,0l0.5,0.6
		c0.1,0.1,0.1,0.2,0,0.2l0,0l-0.9,0.7c-0.1,0.1-0.2,0.1-0.2,0c0,0,0,0,0-0.1l-2.2-2.6c-0.1-0.1-0.1-0.2,0-0.2l0,0l0.9-0.7
		c0.1-0.1,0.2-0.1,0.2,0l0,0l0.5,0.6c0.1,0.1,0.1,0.1,0.1,0l0,0l5.7-4.4c0.1-0.1,0.1-0.1,0-0.1l0,0l-0.5-0.6
		c-0.1-0.1-0.1-0.1-0.1-0.2c0,0,0,0,0.1-0.1l0.9-0.7c0.1-0.1,0.1-0.1,0.2-0.1C45.9,181.1,45.9,181.1,45.9,181.2z M47.7,185.9
		l-1.3-1.6c-0.1-0.1-0.1-0.1-0.1,0l0,0l-2.2,1.7c-0.1,0-0.1,0.1,0,0.1l0,0l1.3,1.6c0.3,0.4,0.6,0.6,1,0.7c0.8,0.1,1.5-0.5,1.6-1.3
		C48.1,186.7,47.9,186.3,47.7,185.9z"/>
	<path class="st1" d="M56.3,193.1c0.6,0.6,1,1.3,1.2,2.1c0.2,0.8,0,1.6-0.4,2.3c-1.1,1.6-2.5,3-4.1,4c-0.7,0.4-1.5,0.5-2.3,0.4
		c-0.8-0.2-1.5-0.6-2.1-1.2c-0.6-0.6-1-1.3-1.2-2.1c-0.2-0.8,0-1.6,0.4-2.3c1.1-1.6,2.5-3,4.1-4c0.7-0.4,1.5-0.5,2.3-0.4
		C55,192.1,55.7,192.5,56.3,193.1z M55.2,194.2c-0.6-0.7-1.5-0.8-2.3-0.4c-0.7,0.4-1.3,1-1.9,1.5c-0.6,0.5-1.1,1.1-1.6,1.8
		c-0.5,1-0.1,2.3,1,2.7c0.6,0.3,1.2,0.3,1.7,0c0.7-0.4,1.3-1,1.9-1.5c0.6-0.5,1.1-1.1,1.5-1.8C55.9,195.8,55.8,194.8,55.2,194.2z"/>
	<path class="st1" d="M64.9,200.8c0.5,0.4,0.9,0.8,1.2,1.3c0.3,0.4,0.5,0.9,0.6,1.4c0,0.1,0,0.2-0.1,0.3l-1.1,1.4
		c-0.1,0.1-0.1,0.1-0.2,0.1c0,0,0,0-0.1-0.1l-1.1-0.9c-0.1-0.1-0.1-0.1-0.1-0.2c0,0,0,0,0.1-0.1l0.6-0.7c0-0.1,0-0.1,0-0.2
		c-0.2-0.5-0.5-1-1-1.3c-0.9-0.7-1.7-0.8-2.6-0.3c-0.6,0.5-1.2,1.1-1.7,1.7s-1,1.2-1.3,2c-0.2,0.4-0.2,0.8-0.1,1.2
		c0.2,0.5,0.5,0.9,0.9,1.1c0.4,0.4,1,0.7,1.5,0.8c0.1,0,0.2,0,0.3-0.1l1.3-1.6c0.1-0.1,0.1-0.1,0-0.1l0,0l-1.3-1
		c-0.1-0.1-0.1-0.1-0.1-0.2l0,0l0.8-1c0.1-0.1,0.1-0.1,0.2-0.1c0,0,0,0,0.1,0.1l2.6,2.1c0.1,0.1,0.1,0.1,0.1,0.2c0,0,0,0-0.1,0.1
		l-2.7,3.4c-0.1,0.1-0.3,0.2-0.4,0.2c-1.2-0.1-2.4-0.6-3.3-1.4c-1.6-1.3-2.1-2.7-1.5-4.3c0.4-0.9,1-1.7,1.6-2.4
		c0.6-0.8,1.2-1.5,2-2.1C61.7,199.3,63.3,199.5,64.9,200.8z"/>
	<path class="st1" d="M70.6,205.3l4.2,2.6c0.8,0.4,1.4,1.1,1.6,2c0.2,0.8,0.1,1.7-0.4,2.4c-0.3,0.5-0.8,1-1.4,1.2
		c-0.6,0.3-1.2,0.3-1.9,0.1l-0.4,3.2c0,0.1,0,0.1,0.1,0.2l0.6,0.4c0.1,0.1,0.1,0.1,0.1,0.2c0,0,0,0,0,0.1l-0.6,1
		c-0.1,0.1-0.1,0.1-0.2,0.1c0,0,0,0-0.1,0l-1.6-1c-0.1-0.1-0.2-0.2-0.1-0.3l0.6-4.6l-1.3-0.8c-0.1-0.1-0.1,0-0.1,0l0,0l-1.4,2.3
		c-0.1,0.1-0.1,0.1,0,0.1l0,0l0.6,0.4c0.1,0.1,0.1,0.1,0.1,0.2c0,0,0,0,0,0.1l-0.6,1c-0.1,0.1-0.1,0.1-0.2,0.1c0,0,0,0-0.1,0
		l-2.9-1.8c-0.1-0.1-0.1-0.1-0.1-0.2c0,0,0,0,0-0.1l0.6-1c0.1-0.1,0.1-0.1,0.2-0.1c0,0,0,0,0.1,0l0.6,0.4c0.1,0.1,0.1,0.1,0.1,0
		c0,0,0,0,0-0.1l3.8-6.1c0.1-0.1,0-0.1,0-0.1l0,0l-0.6-0.4c-0.1-0.1-0.1-0.1-0.1-0.2c0,0,0,0,0-0.1l0.6-1
		C70.4,205.3,70.5,205.3,70.6,205.3C70.6,205.3,70.6,205.3,70.6,205.3z M73.9,209.2l-1.8-1.1C72,208,72,208,72,208l0,0l-1.4,2.3
		c-0.1,0.1,0,0.1,0,0.1l0,0l1.8,1.1c0.4,0.3,0.8,0.3,1.2,0.3c0.4-0.1,0.7-0.3,0.9-0.7c0.2-0.3,0.3-0.7,0.2-1.1
		C74.5,209.7,74.2,209.4,73.9,209.2L73.9,209.2z"/>
	<path class="st1" d="M80.7,211.3l6.7,3.1c0.1,0,0.1,0.1,0.1,0.2v0.1l-1,2.2c0,0.1-0.1,0.1-0.2,0.1h-0.1l-1.2-0.6
		c-0.1,0-0.1-0.1-0.1-0.2c0,0,0,0,0-0.1l0.4-0.8c0-0.1,0-0.1,0-0.1l0,0l-2.8-1.3c-0.1-0.1-0.1,0-0.1,0s0,0,0,0.1l-1.1,2.3
		c0,0.1,0,0.1,0,0.1l0,0l1.9,0.9c0.1,0,0.1,0,0.1-0.1l0.2-0.5c0-0.1,0.1-0.1,0.2-0.1h0.1l1.1,0.5c0.1,0,0.1,0.1,0.1,0.2
		c0,0,0,0,0,0.1l-1.2,2.6c0,0.1-0.1,0.1-0.2,0.1h-0.1l-1.1-0.5c-0.1,0-0.1-0.1-0.1-0.2c0,0,0,0,0-0.1l0.2-0.5c0.1-0.1,0-0.1,0-0.1
		s0,0-0.1,0l-1.9-0.9c-0.1,0-0.1,0-0.1,0l0,0l-1.1,2.5c0,0.1,0,0.1,0,0.1l0,0l2.8,1.3c0.1,0,0.1,0,0.1,0l0,0l0.4-0.8
		c0-0.1,0.1-0.1,0.2-0.1h0.1l1.2,0.6c0.1,0,0.1,0.1,0.1,0.2c0,0,0,0,0,0.1l-1,2.2c0,0.1-0.1,0.1-0.2,0.1c0,0,0,0-0.1,0l-6.7-3.1
		c-0.1,0-0.1-0.1-0.1-0.2v-0.1l0.5-1.1c0-0.1,0.1-0.1,0.2-0.1c0,0,0,0,0.1,0l0.7,0.3c0.1,0,0.1,0,0.1,0l0,0l3-6.5c0-0.1,0-0.1,0-0.1
		l0,0l-0.7-0.3c-0.1,0-0.1-0.1-0.1-0.2v-0.1l0.5-1.1C80.6,211.3,80.7,211.3,80.7,211.3z"/>
	<path class="st1" d="M94.6,216.9c1,0.3,2,0.9,2.7,1.6c0.1,0.1,0.1,0.2,0.1,0.2l-0.7,2c0,0.1-0.1,0.1-0.2,0.1h-0.1l-1.3-0.4
		c-0.1,0-0.1-0.1-0.1-0.2c0,0,0,0,0-0.1l0.3-0.9c0-0.1,0-0.1-0.1-0.2c-0.4-0.3-0.9-0.6-1.3-0.8c-0.4-0.2-0.9-0.2-1.3-0.1
		c-0.4,0.2-0.6,0.5-0.7,0.8s-0.1,0.7,0.1,1c0.3,0.4,0.7,0.7,1.2,0.9l0.5,0.3c1.9,0.9,2.5,2.2,2,3.9c-0.3,0.9-0.9,1.5-1.7,1.9
		c-1,0.4-2.1,0.3-3-0.1c-1.1-0.4-2.2-1-3-1.9c-0.1-0.1-0.1-0.2-0.1-0.2l0.7-2c0-0.1,0.1-0.1,0.2-0.1c0,0,0,0,0.1,0l1.3,0.5
		c0.1,0,0.1,0.1,0.1,0.2c0,0,0,0,0,0.1l-0.3,1c0,0.1,0,0.1,0.1,0.1c0.5,0.4,1,0.7,1.6,0.9c0.5,0.2,1,0.2,1.5,0.1
		c0.4-0.2,0.7-0.5,0.8-0.9c0.1-0.4,0.1-0.7-0.1-1c-0.3-0.4-0.7-0.7-1.2-0.9l-0.5-0.3c-1.9-0.9-2.5-2.2-2-3.9
		c0.2-0.8,0.8-1.5,1.6-1.9C92.7,216.5,93.7,216.5,94.6,216.9z"/>
	<path class="st1" d="M105.2,219.8c1,0.2,2,0.7,2.8,1.3c0.1,0.1,0.1,0.1,0.1,0.2l-0.4,2c0,0.1-0.1,0.2-0.2,0.1h-0.1l-1.3-0.3
		c-0.1,0-0.1-0.1-0.1-0.2v-0.1l0.2-0.9c0-0.1,0-0.1-0.1-0.2c-0.5-0.3-0.9-0.5-1.4-0.6c-0.4-0.1-0.9-0.1-1.3,0.1
		c-0.3,0.2-0.6,0.5-0.6,0.9c-0.1,0.4,0,0.7,0.2,1c0.4,0.4,0.8,0.7,1.3,0.8l0.5,0.2c2,0.7,2.8,1.9,2.4,3.6c-0.2,0.9-0.7,1.6-1.4,2.1
		c-0.9,0.5-2,0.5-3,0.3c-1.2-0.2-2.3-0.8-3.1-1.5c-0.1-0.1-0.1-0.1-0.1-0.2l0.4-2.1c0-0.1,0.1-0.2,0.2-0.1h0.1l1.4,0.3
		c0.1,0,0.2,0.1,0.1,0.2v0.1l-0.2,1c0,0.1,0,0.1,0.1,0.1c0.5,0.4,1.1,0.6,1.7,0.7c0.5,0.2,1,0.1,1.5-0.1c0.4-0.2,0.7-0.6,0.7-1
		c0.1-0.4,0-0.7-0.2-1c-0.4-0.4-0.8-0.7-1.3-0.8l-0.5-0.2c-2-0.7-2.8-1.9-2.4-3.6c0.2-0.9,0.7-1.6,1.4-2
		C103.3,219.6,104.3,219.5,105.2,219.8z"/>
	<path class="st1" d="M121.1,221.9l1.6,0.1c0.1,0,0.2,0.1,0.2,0.2l2.7,8.8c0,0.1,0.1,0.1,0.1,0.1l0,0h0.5c0.1,0,0.2,0.1,0.2,0.1v0.1
		l-0.1,1.2c0,0.1-0.1,0.2-0.1,0.2h-0.1l-3.1-0.1c-0.1,0-0.2-0.1-0.2-0.1c0,0,0,0,0-0.1l0.1-1.2c0-0.1,0.1-0.2,0.1-0.2h0.1h0.7
		c0.1,0,0.1-0.1,0.1-0.1l-0.4-1.3l-3.5-0.1l-0.5,1.3c-0.1,0.1,0,0.1,0.1,0.1h0.6c0.1,0,0.2,0.1,0.2,0.1v0.1l-0.1,1.2
		c0,0.1-0.1,0.2-0.1,0.2c0,0,0,0-0.1,0l-3.1-0.1c-0.1,0-0.2-0.1-0.2-0.2l0.1-1.2c0-0.1,0.1-0.2,0.1-0.2c0,0,0,0,0.1,0h0.5
		c0.1,0,0.1-0.1,0.1-0.1l3.3-8.5C120.9,222,121,221.9,121.1,221.9z M121.8,224.2l-1.3,3.5l2.5,0.1L121.8,224.2L121.8,224.2z"/>
	<path class="st1" d="M135.7,221.5l3.3-0.3c0.1,0,0.2,0.1,0.2,0.1v0.1l0.1,1.2c0,0.1-0.1,0.2-0.1,0.2l0,0l-0.7,0.1
		c-0.1,0-0.1,0.1-0.1,0.1s0,0,0,0.1l0.8,8.6c0,0.1-0.1,0.2-0.1,0.2c0,0,0,0-0.1,0l-1.4,0.1c-0.1,0-0.2-0.1-0.3-0.1l-4.9-6.7h-0.1
		l0.5,5.7c0,0.1,0.1,0.1,0.1,0.1l0,0l0.7-0.1c0.1,0,0.2,0.1,0.2,0.1v0.1l0.1,1.2c0,0.1-0.1,0.2-0.1,0.2c0,0,0,0-0.1,0l-3.3,0.3
		c-0.1,0-0.2-0.1-0.2-0.2l-0.1-1.2c0-0.1,0.1-0.2,0.2-0.2l0.7-0.1c0.1,0,0.1-0.1,0.1-0.1l0,0l-0.7-7.2c0-0.1-0.1-0.1-0.1-0.1l0,0
		l-0.7,0.1c-0.1,0-0.2-0.1-0.2-0.1c0,0,0,0,0-0.1l-0.1-1.2c0-0.1,0.1-0.2,0.1-0.2h0.1l2.4-0.2c0.1,0,0.2,0.1,0.3,0.1l4.9,6.8h0.1
		l-0.5-5.7c0-0.1-0.1-0.1-0.1-0.1l-0.7,0.1c-0.1,0-0.2-0.1-0.2-0.2l-0.1-1.2C135.6,221.5,135.6,221.5,135.7,221.5z"/>
	<path class="st1" d="M142.5,220.6l4.5-1c1.7-0.4,3.1,0.1,3.9,1.5c0.4,0.9,0.7,1.8,0.9,2.8c0.3,0.9,0.4,1.9,0.4,2.9
		c-0.2,1.6-1.1,2.6-2.9,3l-4.5,1c-0.1,0.1-0.2,0-0.2-0.1c0,0,0,0,0-0.1l-0.3-1.2c-0.1-0.1,0-0.2,0.1-0.2h0.1l0.7-0.2
		c0.1,0,0.1-0.1,0.1-0.1l0,0l-1.6-7c0-0.1-0.1-0.1-0.1-0.1l0,0l-0.7,0.2c-0.1,0.1-0.2,0-0.2-0.1c0,0,0,0,0-0.1l-0.3-1.2
		C142.3,220.7,142.3,220.6,142.5,220.6C142.4,220.6,142.4,220.6,142.5,220.6z M146.9,221.3l-1.4,0.3c-0.1,0-0.1,0.1-0.1,0.1l0,0
		l1.5,6.8c0,0.1,0.1,0.1,0.1,0.1c0,0,0,0,0.1,0l1.4-0.3c1.1-0.3,1.7-0.8,1.8-1.7c0-0.8-0.1-1.5-0.3-2.3c-0.1-0.8-0.4-1.5-0.7-2.2
		C148.8,221.3,148,221,146.9,221.3L146.9,221.3z"/>
	<path class="st1" d="M162.7,214.3c1-0.4,2.1-0.6,3.1-0.5c0.1,0,0.2,0.1,0.2,0.1l0.8,1.9c0.1,0.1,0,0.2-0.1,0.2c0,0,0,0-0.1,0
		l-1.2,0.5c-0.1,0.1-0.2,0-0.2-0.1c0,0,0,0,0-0.1l-0.4-0.9c0-0.1-0.1-0.1-0.2-0.1c-0.5,0-1.1,0.1-1.5,0.3c-0.4,0.2-0.8,0.4-1,0.8
		c-0.2,0.4-0.2,0.7,0,1.1c0.1,0.4,0.4,0.6,0.8,0.7c0.5,0.1,1,0.1,1.5-0.1l0.5-0.2c2-0.5,3.4,0,4.1,1.6c0.4,0.8,0.4,1.7,0,2.5
		c-0.5,0.9-1.3,1.6-2.3,1.9c-1.1,0.5-2.3,0.7-3.4,0.6c-0.1,0-0.2-0.1-0.2-0.1l-0.8-1.9c-0.1-0.1,0-0.2,0.1-0.2c0,0,0,0,0.1,0
		l1.3-0.5c0.1-0.1,0.2,0,0.2,0.1c0,0,0,0,0,0.1l0.4,0.9c0,0.1,0.1,0.1,0.1,0.1c0.6,0,1.2-0.2,1.8-0.4c0.5-0.2,0.9-0.5,1.2-0.9
		c0.2-0.4,0.3-0.8,0.1-1.2c-0.2-0.4-0.4-0.6-0.8-0.7c-0.5-0.1-1-0.1-1.5,0.1l-0.5,0.2c-2,0.5-3.3,0-4.1-1.6c-0.4-0.8-0.4-1.7,0-2.5
		C161,215.3,161.8,214.7,162.7,214.3z"/>
	<path class="st1" d="M169.3,211.6l6.5-3.6c0.1-0.1,0.2-0.1,0.2,0c0,0,0,0,0,0.1l1.1,2.1c0.1,0.1,0.1,0.2-0.1,0.2c0,0,0,0-0.1,0
		l-1.1,0.6c-0.1,0.1-0.2,0.1-0.2-0.1c0,0,0,0,0-0.1l-0.4-0.7c0-0.1-0.1-0.1-0.1-0.1l0,0l-2.7,1.5c-0.1,0-0.1,0.1-0.1,0.1l0,0
		l1.2,2.3c0,0.1,0.1,0.1,0.1,0.1l0,0l1.9-1c0.1,0,0.1-0.1,0.1-0.1c0,0,0,0,0-0.1l-0.3-0.5c-0.1-0.1-0.1-0.2,0-0.2c0,0,0,0,0.1,0
		l1.1-0.6c0.1-0.1,0.2-0.1,0.2,0v0.1l1.4,2.5c0.1,0.1,0.1,0.2-0.1,0.2c0,0,0,0-0.1,0l-1.1,0.6c-0.1,0.1-0.2,0.1-0.2-0.1
		c0,0,0,0,0-0.1l-0.3-0.5c0-0.1-0.1-0.1-0.1-0.1l0,0l-1.9,1c-0.1,0-0.1,0.1-0.1,0.1l0,0l1.3,2.4c0,0.1,0.1,0.1,0.1,0.1l0,0l2.7-1.5
		c0.1,0,0.1-0.1,0.1-0.1l0,0l-0.5-0.8c-0.1-0.1-0.1-0.2,0.1-0.2c0,0,0,0,0.1,0l1.1-0.6c0.1-0.1,0.2-0.1,0.2,0c0,0,0,0,0,0.1l1.2,2.2
		c0.1,0.1,0.1,0.2-0.1,0.2c0,0,0,0-0.1,0l-6.4,3.6c-0.1,0.1-0.2,0.1-0.2-0.1c0,0,0,0,0-0.1l-0.6-1c-0.1-0.1-0.1-0.2,0.1-0.2
		c0,0,0,0,0.1,0l0.6-0.4c0.1,0,0.1-0.1,0.1-0.1l0,0l-3.5-6.3c0-0.1-0.1-0.1-0.1-0.1l0,0l-0.6,0.4c-0.1,0.1-0.2,0.1-0.2-0.1
		c0,0,0,0,0-0.1L169.3,211.6c-0.1,0-0.1-0.1,0-0.2C169.2,211.6,169.2,211.6,169.3,211.6z"/>
	<path class="st1" d="M178.8,206l4-2.9c0.7-0.6,1.6-0.9,2.5-0.8c0.8,0.1,1.6,0.6,2,1.3c0.4,0.5,0.6,1.1,0.6,1.7
		c0,0.6-0.2,1.2-0.6,1.7l2.9,1.6c0.1,0.1,0.1,0.1,0.2,0l0.6-0.4c0.1-0.1,0.2-0.1,0.2,0c0,0,0,0,0,0.1l0.7,1c0.1,0.1,0.1,0.2,0,0.2
		c0,0,0,0-0.1,0l-1.5,1.1c-0.1,0.1-0.2,0.1-0.3,0l-4.1-2.3l-1.3,0.9c-0.1,0.1-0.1,0.1,0,0.1l0,0l1.5,2.2c0.1,0.1,0.1,0.1,0.1,0l0,0
		l0.6-0.4c0.1-0.1,0.2-0.1,0.2,0c0,0,0,0,0,0.1l0.7,1c0.1,0.1,0.1,0.2,0,0.2c0,0,0,0-0.1,0.1l-2.8,2.1c-0.1,0.1-0.2,0.1-0.2,0
		c0,0,0,0,0-0.1l-0.7-1c-0.1-0.1-0.1-0.2,0-0.2c0,0,0,0,0.1,0l0.6-0.4c0.1-0.1,0.1-0.1,0-0.1l0,0l-4.2-5.9c-0.1-0.1-0.1-0.1-0.1,0
		l0,0l-0.6,0.4c-0.1,0.1-0.2,0.1-0.2,0c0,0,0,0,0-0.1l-0.7-1C178.7,206.1,178.7,206.1,178.8,206L178.8,206z M183.6,204.5l-1.7,1.2
		c-0.1,0-0.1,0.1,0,0.1l0,0l1.6,2.2c0.1,0.1,0.1,0.1,0.1,0l0,0l1.7-1.2c0.4-0.3,0.6-0.6,0.7-1c0.1-0.8-0.4-1.6-1.2-1.7
		C184.4,204,184,204.2,183.6,204.5L183.6,204.5z"/>
	<path class="st1" d="M192.1,195.4l2.3-2.1c0.1-0.1,0.2-0.1,0.2,0l0,0l0.8,0.9c0.1,0.1,0.1,0.2,0,0.2l0,0l-0.3,0.3
		c-0.1,0.1-0.1,0.1,0,0.1l3.7,8.4c0.1,0.1,0.1,0.2-0.1,0.3l-1.2,1.1c-0.1,0.1-0.2,0.1-0.3,0l-8-4.4c-0.1-0.1-0.1-0.1-0.2,0l-0.3,0.3
		c-0.1,0.1-0.1,0.1-0.2,0.1c0,0,0,0-0.1-0.1l-0.9-0.9c-0.1-0.1-0.1-0.1-0.1-0.2c0,0,0,0,0.1-0.1l2.3-2.1c0.1-0.1,0.1-0.1,0.2-0.1
		c0,0,0,0,0.1,0.1l0.8,0.9c0.1,0.1,0.1,0.1,0.1,0.2c0,0,0,0-0.1,0.1l-0.5,0.5c-0.1,0.1-0.1,0.1,0,0.2l5.9,3.2l0.1-0.1l-2.8-6.1
		c-0.1-0.1-0.1-0.1-0.1,0l-0.6,0.5c-0.1,0.1-0.1,0.1-0.2,0.1c0,0,0,0-0.1-0.1l-0.8-0.9C192,195.6,192,195.5,192.1,195.4
		C192.1,195.4,192.1,195.4,192.1,195.4z"/>
	<path class="st1" d="M196.4,191l2.3-2.6c0.1-0.1,0.1-0.1,0.2-0.1c0,0,0,0,0.1,0.1l0.9,0.8c0.1,0.1,0.1,0.1,0.1,0.2c0,0,0,0-0.1,0.1
		l-0.5,0.6c-0.1,0-0.1,0.1,0,0.1l0,0l5.4,4.8c0.1,0.1,0.1,0.1,0.1,0l0,0l0.5-0.6c0.1-0.1,0.2-0.1,0.2,0l0,0l0.9,0.8
		c0.1,0.1,0.1,0.1,0.1,0.2c0,0,0,0-0.1,0.1L204,198c-0.1,0.1-0.1,0.1-0.2,0.1c0,0,0,0-0.1-0.1l-0.9-0.8c-0.1-0.1-0.1-0.1-0.1-0.2
		c0,0,0,0,0.1-0.1l0.5-0.6c0.1-0.1,0.1-0.1,0-0.1l0,0l-5.4-4.8c0-0.1-0.1-0.1-0.1,0l0,0l-0.5,0.6c-0.1,0.1-0.2,0.1-0.2,0l0,0
		l-0.9-0.8C196.3,191.2,196.3,191.1,196.4,191L196.4,191z"/>
	<path class="st1" d="M203.2,182.6c0.6-0.9,1.5-1.6,2.5-2c0.1-0.1,0.2,0,0.3,0l1.6,1.2c0.1,0.1,0.1,0.1,0.1,0.2c0,0,0,0,0,0.1
		l-0.8,1.1c-0.1,0.1-0.2,0.1-0.2,0.1l0,0l-0.8-0.6c-0.1,0-0.1,0-0.2,0c-0.4,0.2-0.8,0.5-1,0.9c-0.3,0.4-0.5,0.8-0.6,1.3
		c0,0.4,0.2,0.9,0.4,1.2c0.5,0.6,1.1,1.1,1.8,1.6c0.6,0.5,1.3,0.9,2,1.3c0.4,0.2,0.8,0.2,1.2,0.1c0.5-0.2,0.9-0.5,1.1-0.9
		c0.3-0.4,0.5-0.8,0.6-1.2c0-0.1,0-0.1-0.1-0.2l-0.9-0.7c-0.1-0.1-0.1-0.1-0.1-0.2c0,0,0,0,0-0.1l0.8-1.1c0.1-0.1,0.1-0.1,0.2-0.1
		c0,0,0,0,0.1,0l1.6,1.2c0.1,0.1,0.1,0.2,0.1,0.3c-0.1,1.1-0.6,2.1-1.2,3c-1.2,1.6-2.6,2.1-4.2,1.5c-0.9-0.4-1.7-0.9-2.5-1.5
		c-0.8-0.5-1.5-1.2-2.1-1.9C201.9,185.6,202,184.1,203.2,182.6z"/>
	<path class="st1" d="M207.2,177.2l3.8-6.4c0-0.1,0.1-0.1,0.2-0.1h0.1l2.1,1.2c0.1,0.1,0.1,0.1,0.1,0.2c0,0,0,0,0,0.1l-0.7,1.1
		c-0.1,0.1-0.1,0.1-0.2,0.1h-0.1l-0.7-0.4c-0.1-0.1-0.1,0-0.1,0l0,0l-1.6,2.7c-0.1,0.1,0,0.1,0,0.1l0,0l2.2,1.3c0.1,0.1,0.1,0,0.1,0
		l0,0l1.1-1.8c0.1-0.1,0-0.1,0-0.1l0,0l-0.5-0.3c-0.1-0.1-0.1-0.1-0.1-0.2c0,0,0,0,0-0.1l0.6-1.1c0.1-0.1,0.1-0.1,0.2-0.1
		c0,0,0,0,0.1,0l2.5,1.4c0.1,0.1,0.1,0.1,0.1,0.2c0,0,0,0,0,0.1l-0.6,1.1c-0.1,0.1-0.1,0.1-0.2,0.1c0,0,0,0-0.1,0L215,176
		c-0.1-0.1-0.1,0-0.1,0l0,0l-1.1,1.8c-0.1,0.1,0,0.1,0,0.1l0,0l2.3,1.3c0.1,0.1,0.1,0,0.1,0l0,0l1.5-2.7c0.1-0.1,0-0.1,0-0.1l0,0
		L217,176c-0.1-0.1-0.1-0.1-0.1-0.2c0,0,0,0,0-0.1l0.7-1.1c0.1-0.1,0.1-0.1,0.2-0.1c0,0,0,0,0.1,0l2.1,1.2c0.1,0.1,0.1,0.1,0.1,0.2
		c0,0,0,0,0,0.1l-3.8,6.4c-0.1,0.1-0.1,0.1-0.2,0.1c0,0,0,0-0.1,0l-1-0.6c-0.1-0.1-0.1-0.1-0.1-0.2c0,0,0,0,0-0.1l0.4-0.6
		c0.1-0.1,0-0.1,0-0.1l0,0l-6.2-3.6c-0.1-0.1-0.1,0-0.1,0s0,0,0,0.1l-0.4,0.6c-0.1,0.1-0.1,0.1-0.2,0.1c0,0,0,0-0.1,0l-1-0.6
		C207.2,177.3,207.2,177.3,207.2,177.2L207.2,177.2z"/>
	<circle class="st0" cx="224.1" cy="151.4" r="3.3"/>
	<circle class="st0" cx="26.3" cy="151.4" r="3.3"/>
</g>
</svg>
