<?xml version="1.0" encoding="UTF-8"?>
<svg width="247px" height="201px" viewBox="0 0 247 201" version="1.1" xmlns="http://www.w3.org/2000/svg" xmlns:xlink="http://www.w3.org/1999/xlink">
    <title>twitter</title>
    <g id="2021-Twitter-logo---black" transform="translate(-1.000000, -1.000000)" fill="#000105">
        <path d="M221.952,51.287 C222.1,53.453 222.1,55.629 222.1,57.814 C222.1,124.548 171.296,201.5 78.414,201.5 L78.414,201.461 C50.974,201.497 24.103,193.636 1.009,178.815 C4.998,179.293 9.012,179.537 13.03,179.544 C35.774,179.567 57.864,171.938 75.746,157.885 C54.141,157.479 35.182,143.386 28.566,122.814 C36.133,124.272 43.934,123.976 51.369,121.948 C27.806,117.188 10.861,96.483 10.854,72.445 C10.854,72.229 10.854,72.012 10.854,71.805 C17.877,75.72 25.738,77.888 33.774,78.126 C11.582,63.307 4.736,33.788 18.14,10.713 C43.782,42.262 81.613,61.44 122.217,63.476 C118.146,45.939 123.711,27.56 136.826,15.226 C157.162,-3.899 189.151,-2.917 208.276,17.419 C219.585,15.189 230.43,11.043 240.343,5.161 C236.574,16.855 228.684,26.782 218.142,33.092 C228.153,31.91 237.93,29.231 247.146,25.148 C240.366,35.287 231.835,44.138 221.952,51.287" id="Fill-1"></path>
    </g>
</svg>