<?xml version="1.0" encoding="UTF-8"?>
<svg width="176px" height="124px" viewBox="0 0 176 124" version="1.1" xmlns="http://www.w3.org/2000/svg" xmlns:xlink="http://www.w3.org/1999/xlink">
    <title>youtube</title>
    <g id="youtube" fill="#000000" fill-rule="nonzero">
        <path d="M81.678662,0.0336998445 L83.6056231,0.0188374345 L83.6056231,0.0188374345 L88.4007339,0.00046275 L88.4007339,0.00046275 L92.3943769,0.0188374345 L92.3943769,0.0188374345 L96.5320339,0.0548430377 L96.5320339,0.0548430377 L100.317059,0.100755766 L100.317059,0.100755766 L105.328145,0.180313698 L105.328145,0.180313698 L109.218919,0.257392408 L109.218919,0.257392408 L112.47518,0.332866781 L112.47518,0.332866781 L115.827911,0.421817164 L115.827911,0.421817164 L119.248303,0.525350515 L119.248303,0.525350515 L120.974869,0.582931728 L120.974869,0.582931728 L123.575051,0.676960883 L123.575051,0.676960883 L126.176829,0.780593952 L126.176829,0.780593952 L128.76805,0.894297931 L128.76805,0.894297931 L130.483663,0.975926151 L130.483663,0.975926151 L133.030278,1.10745275 L133.030278,1.10745275 L134.7049,1.20139513 L134.7049,1.20139513 L136.356824,1.30050531 L136.356824,1.30050531 L137.982448,1.40492168 L137.982448,1.40492168 L139.578171,1.51478259 L139.578171,1.51478259 L141.140392,1.63022642 L141.140392,1.63022642 L142.66551,1.75139153 L142.66551,1.75139153 L144.149922,1.87841631 L144.149922,1.87841631 L145.590029,2.01143911 L145.590029,2.01143911 L146.982229,2.15059831 C147.21007,2.17431057 147.435765,2.19828427 147.659238,2.2225223 L148.972825,2.37114554 C152.187154,2.75074889 154.86795,3.191124 156.762,3.702 C164.335,5.739 170.298,11.741 172.322,19.363 C172.496705,20.019165 172.663112,20.7091941 172.821614,21.4283896 L173.008048,22.3051236 L173.008048,22.3051236 L173.187045,23.2080535 L173.187045,23.2080535 L173.358756,24.1353755 L173.358756,24.1353755 L173.523334,25.0852858 L173.523334,25.0852858 L173.680929,26.0559805 C173.706621,26.2193947 173.732029,26.3835998 173.757155,26.5485582 L173.90456,27.5470473 L173.90456,27.5470473 L174.04536,28.561811 L174.04536,28.561811 L174.179708,29.5910456 L174.179708,29.5910456 L174.307753,30.6329473 L174.307753,30.6329473 L174.429649,31.6857121 L174.429649,31.6857121 L174.545546,32.7475361 L174.545546,32.7475361 L174.655596,33.8166156 L174.655596,33.8166156 L174.810037,35.4298928 L174.810037,35.4298928 L174.952173,37.049348 L174.952173,37.049348 L175.082515,38.6688932 L175.082515,38.6688932 L175.163109,39.7456335 L175.163109,39.7456335 L175.309858,41.8839012 L175.309858,41.8839012 L175.376316,42.9418208 L175.376316,42.9418208 L175.496154,45.0262125 L175.496154,45.0262125 L175.575186,46.5548869 L175.575186,46.5548869 L175.667072,48.5353853 L175.667072,48.5353853 L175.778451,51.3531046 L175.778451,51.3531046 L175.873158,54.3502135 L175.873158,54.3502135 L175.936099,56.9611093 L175.936099,56.9611093 L175.994184,60.8957268 L175.994184,60.8957268 L175.99954,61.7893065 L175.99954,61.7893065 L175.986436,63.9023294 L175.986436,63.9023294 L175.9603,65.7500126 L175.9603,65.7500126 L175.894098,68.8608579 L175.894098,68.8608579 L175.80913,71.7554689 L175.80913,71.7554689 L175.72653,74.0302002 L175.72653,74.0302002 L175.667072,75.464372 L175.667072,75.464372 L175.575186,77.4448636 L175.575186,77.4448636 L175.496154,78.9735382 L175.496154,78.9735382 L175.376316,81.0579384 L175.376316,81.0579384 L175.23884,83.1818741 L175.23884,83.1818741 L175.163109,84.2541586 L175.163109,84.2541586 L175.040347,85.8704081 L175.040347,85.8704081 L174.90613,87.490634 L174.90613,87.490634 L174.810037,88.5699875 L174.810037,88.5699875 L174.708475,89.646599 L174.708475,89.646599 L174.601293,90.7186648 L174.601293,90.7186648 L174.488338,91.7843812 L174.488338,91.7843812 L174.369461,92.8419446 L174.369461,92.8419446 L174.244509,93.8895511 L174.244509,93.8895511 L174.113331,94.9253972 L174.113331,94.9253972 L173.975776,95.9476792 L173.975776,95.9476792 L173.831692,96.9545932 C173.807126,97.1210314 173.782281,97.286754 173.757155,97.4517236 L173.602995,98.432204 C173.57673,98.594011 173.550177,98.7549899 173.523334,98.9151029 L173.358756,99.8650912 L173.358756,99.8650912 L173.187045,100.792497 L173.187045,100.792497 L173.008048,101.695516 L173.008048,101.695516 L172.821614,102.572345 C172.663112,103.291623 172.496705,103.98174 172.322,104.638 C170.298,112.259 164.335,118.261 156.762,120.299 C154.936575,120.791233 152.380382,121.217999 149.320095,121.588005 L147.978342,121.743129 C147.749793,121.768413 147.518837,121.793413 147.285557,121.818133 L145.85865,121.963118 C145.616404,121.98673 145.371999,122.010069 145.125518,122.033137 L143.622378,122.168325 L143.622378,122.168325 L142.073373,122.297171 L142.073373,122.297171 L140.482468,122.419829 L140.482468,122.419829 L138.853628,122.536451 L138.853628,122.536451 L137.190818,122.647189 L137.190818,122.647189 L135.498004,122.752195 L135.498004,122.752195 L132.911198,122.89929 L132.911198,122.89929 L130.279185,123.034346 L130.279185,123.034346 L127.615348,123.157876 L127.615348,123.157876 L125.828386,123.23408 L125.828386,123.23408 L123.141248,123.339543 L123.141248,123.339543 L121.351142,123.404179 L121.351142,123.404179 L118.677876,123.493003 L118.677876,123.493003 L115.156537,123.597061 L115.156537,123.597061 L110.868604,123.705745 L110.868604,123.705745 L107.567911,123.777065 L107.567911,123.777065 L102.170782,123.872364 L102.170782,123.872364 L96.7817626,123.942518 L96.7817626,123.942518 L88.9708477,123.99821 L88.9708477,123.99821 L84.4140898,123.986351 L84.4140898,123.986351 L80.9757914,123.960052 L80.9757914,123.960052 L75.9598819,123.903041 L75.9598819,123.903041 L70.8111616,123.822241 L70.8111616,123.822241 L66.7984616,123.743052 L66.7984616,123.743052 L62.5767757,123.643272 L62.5767757,123.643272 L59.090591,123.547022 L59.090591,123.547022 L56.433282,123.464454 L56.433282,123.464454 L53.7542675,123.372416 L53.7542675,123.372416 L51.0669299,123.270395 L51.0669299,123.270395 L48.3846516,123.157876 L48.3846516,123.157876 L45.7208149,123.034346 L45.7208149,123.034346 L43.0888022,122.89929 L43.0888022,122.89929 L40.5019959,122.752195 L40.5019959,122.752195 L38.8091816,122.647189 L38.8091816,122.647189 L37.1463718,122.536451 L37.1463718,122.536451 L35.5175319,122.419829 L35.5175319,122.419829 L33.9266268,122.297171 L33.9266268,122.297171 L32.3776217,122.168325 L32.3776217,122.168325 L30.8744818,122.033137 C30.6280009,122.010069 30.3835962,121.98673 30.1413504,121.963118 L28.7144429,121.818133 C28.4811631,121.793413 28.2502073,121.768413 28.0216582,121.743129 L26.6799047,121.588005 C23.619618,121.217999 21.063425,120.791233 19.238,120.299 C11.666,118.261 5.702,112.259 3.678,104.638 C2.78568522,101.286118 2.10985376,97.0509987 1.59798489,92.558492 L1.43336258,91.0523154 C1.35401572,90.2953191 1.27906128,89.5331049 1.2082561,88.7685701 L1.06315967,87.1321078 L1.06315967,87.1321078 L0.940748349,85.6304716 L0.940748349,85.6304716 L0.792670712,83.6356486 L0.792670712,83.6356486 L0.692438154,82.1513352 L0.692438154,82.1513352 L0.544798666,79.7143287 L0.544798666,79.7143287 L0.419795134,77.342837 L0.419795134,77.342837 L0.315543888,75.0593064 L0.315543888,75.0593064 L0.245818712,73.3108979 L0.245818712,73.3108979 L0.149956476,70.4557778 L0.149956476,70.4557778 L0.0829543489,67.9138447 L0.0829543489,67.9138447 L0.0308971655,65.2049609 L0.0308971655,65.2049609 L0.001883136,62.5309425 L0.001883136,62.5309425 L0.00586057534,60.8902117 L0.00586057534,60.8902117 L0.0485908103,57.7467569 L0.0485908103,57.7467569 L0.119619057,54.6153329 L0.119619057,54.6153329 L0.165944063,53.0188777 L0.165944063,53.0188777 L0.238940564,50.8738012 L0.238940564,50.8738012 L0.330708812,48.5864973 L0.330708812,48.5864973 L0.395673772,47.1564948 L0.395673772,47.1564948 L0.521944677,44.6948721 L0.521944677,44.6948721 L0.640395031,42.6698621 L0.640395031,42.6698621 L0.705809468,41.6432918 L0.705809468,41.6432918 L0.849704225,39.5702122 L0.849704225,39.5702122 L0.969599239,38.0044067 L0.969599239,38.0044067 L1.10027316,36.4353199 L1.10027316,36.4353199 L1.19360651,35.3901696 L1.19360651,35.3901696 L1.34327631,33.8279013 L1.34327631,33.8279013 L1.44970319,32.7924163 L1.44970319,32.7924163 L1.56160805,31.7636646 L1.56160805,31.7636646 L1.67912837,30.7432844 L1.67912837,30.7432844 L1.80240163,29.7329139 L1.80240163,29.7329139 L1.93156529,28.7341916 L1.93156529,28.7341916 L2.06675684,27.7487558 L2.06675684,27.7487558 L2.20811373,26.7782446 L2.20811373,26.7782446 L2.35577345,25.8242965 L2.35577345,25.8242965 L2.50987346,24.8885498 L2.50987346,24.8885498 L2.67055125,23.9726428 L2.67055125,23.9726428 L2.83794427,23.0782137 L2.83794427,23.0782137 L3.01219001,22.2069009 C3.04180967,22.0636995 3.07172058,21.9215295 3.10192561,21.7804251 L3.28670819,20.9468586 C3.41228009,20.4000362 3.5426496,19.8713552 3.678,19.363 C5.702,11.741 11.666,5.739 19.238,3.702 C21.00578,3.2251824 23.4589029,2.80977891 26.391498,2.44787938 L27.6770797,2.29603228 C28.1149919,2.24649312 28.5620891,2.19802282 29.017771,2.15059831 L30.4099707,2.01143911 L30.4099707,2.01143911 L31.8500776,1.87841631 L31.8500776,1.87841631 L33.3344904,1.75139153 L33.3344904,1.75139153 L34.8596079,1.63022642 L34.8596079,1.63022642 L36.4218288,1.51478259 L36.4218288,1.51478259 L38.0175519,1.40492168 L38.0175519,1.40492168 L39.6431759,1.30050531 L39.6431759,1.30050531 L42.1297986,1.15378661 L42.1297986,1.15378661 L44.6634415,1.01853982 L44.6634415,1.01853982 L46.372657,0.934517954 L46.372657,0.934517954 L48.9576576,0.817353227 L48.9576576,0.817353227 L50.6898577,0.744953667 L50.6898577,0.744953667 L53.2924544,0.644573792 L53.2924544,0.644573792 L55.8894031,0.553642163 L55.8894031,0.553642163 L58.4685497,0.471691784 L58.4685497,0.471691784 L62.6945559,0.353797761 L62.6945559,0.353797761 L67.5766962,0.240499719 L67.5766962,0.240499719 L72.1607501,0.154409381 L72.1607501,0.154409381 L76.3494841,0.0917907616 L76.3494841,0.0917907616 L81.678662,0.0336998445 L81.678662,0.0336998445 Z M70,35.831 L70,88.169 L116,62.001 L70,35.831 Z" id="Shape"></path>
    </g>
</svg>