<?xml version="1.0" encoding="UTF-8"?>
<svg width="149px" height="149px" viewBox="0 0 149 149" version="1.1" xmlns="http://www.w3.org/2000/svg" xmlns:xlink="http://www.w3.org/1999/xlink">
    <title>favicon</title>
    <style>
        path {
            fill: #000;
        }
        @media (prefers-color-scheme: dark) {
            path {
                fill: #fff;
            }
        }
    </style>
    <path d="M56.4772234,33 C62.2624729,33 67,28.7238979 67,23.4779582 C67,18.2761021 62.2624729,14 56.4772234,14 C50.7375271,14 46,18.2761021 46,23.4779582 C46,28.7238979 50.7375271,33 56.4772234,33 Z M39.8622754,135 C56.1197605,135 66,128.659091 66,112.982955 L66,42 L46.8682635,42 L46.8682635,112.674716 C46.8682635,117.78267 44.6676647,120.336648 38.5149701,120.336648 C37.7065868,120.336648 36.988024,120.336648 36,120.24858 L36,134.911932 C37.3922156,134.955966 38.5149701,135 39.8622754,135 Z M77,110 C97.957672,110 111,95.9205549 111,75.0441362 C111,54.035309 97.957672,40 77,40 C56.042328,40 43,54.035309 43,75.0441362 C43,95.9205549 56.042328,110 77,110 Z M77.5897833,96 C67.9380805,96 63,87.3243824 63,75.5220193 C63,63.7196563 67.9380805,55 77.5897833,55 C87.0619195,55 92,63.7196563 92,75.5220193 C92,87.3243824 87.0619195,96 77.5897833,96 Z M70.1691041,110.985373 C85.190867,110.517905 86.5687867,109.718762 89.6810783,108.915133 C91.7559393,108.379381 97.5289132,93.0734654 107,62.9973861 C107,46.8107643 93.0873318,40 77.7385173,40 C61.2228338,40 50.3619767,47.7837307 47.7140818,60.1669385 L65.3966342,61.5821623 C66.6981419,57.0711366 70.7821832,53.7542059 77.6487581,53.7542059 C84.1562965,53.7542059 86.622799,58.1239603 88.5719809,61.1703293 C89.8714354,63.2012419 89.7536218,64.7846258 88.2185401,65.9204808 C88.0923415,65.966238 87.9967963,66.0004649 87.9319045,66.0231617 C84.5341206,67.2115803 78.9521855,68.1784049 71.1860994,68.9236355 C57.5427086,70.1619563 46,74.5823481 46,89.7517777 C46,103.196403 57.0240358,111.394441 70.1691041,110.985373 Z M73.9082569,98 C68.1394495,98 64,95.2706935 64,90.0357942 C64,84.6666667 68.359633,82.0268456 74.9651376,81.0872483 C79.0605505,80.5055928 85.7541284,79.5212528 88,78 L88,85.2930649 C88,92.4966443 82.1431193,98 73.9082569,98 Z M80,110 C100.957672,110 114,95.9205549 114,75.0441362 C114,54.035309 100.957672,40 80,40 C59.042328,40 46,54.035309 46,75.0441362 C46,95.9205549 59.042328,110 80,110 Z M80.5897833,96 C70.9380805,96 66,87.3243824 66,75.5220193 C66,63.7196563 70.9380805,55 80.5897833,55 C90.0619195,55 95,63.7196563 95,75.5220193 C95,87.3243824 90.0619195,96 80.5897833,96 Z" id="joao" fill="#000000" fill-rule="nonzero"></path>
</svg>