<?xml version="1.0" standalone="no"?>
<!DOCTYPE svg PUBLIC "-//W3C//DTD SVG 20010904//EN"
 "http://www.w3.org/TR/2001/REC-SVG-20010904/DTD/svg10.dtd">
<svg version="1.0" xmlns="http://www.w3.org/2000/svg"
 width="1024.000000pt" height="1024.000000pt" viewBox="0 0 1024.000000 1024.000000"
 preserveAspectRatio="xMidYMid meet">
<metadata>
Created by potrace 1.14, written by Peter Selinger 2001-2017
</metadata>
<g transform="translate(0.000000,1024.000000) scale(0.100000,-0.100000)"
fill="#000000" stroke="none">
<path d="M4937 8764 c-1 -1 -44 -5 -94 -8 -51 -4 -110 -9 -130 -12 -74 -9
-118 -15 -143 -19 -14 -3 -38 -7 -55 -10 -238 -39 -591 -139 -762 -216 -23
-10 -45 -19 -48 -19 -4 0 -73 -32 -153 -71 -193 -94 -304 -159 -541 -318 -172
-116 -475 -392 -631 -576 -24 -27 -46 -52 -50 -55 -12 -9 -167 -217 -217 -291
-243 -360 -421 -760 -518 -1163 -33 -137 -69 -324 -79 -416 -7 -65 -15 -147
-21 -210 -6 -65 -6 -421 0 -500 5 -71 15 -173 20 -202 2 -13 6 -45 9 -73 26
-235 152 -680 263 -925 199 -444 442 -798 773 -1128 110 -111 218 -207 310
-277 36 -27 71 -55 78 -62 17 -17 328 -223 336 -223 3 0 24 -11 45 -24 61 -39
266 -140 385 -191 341 -144 738 -241 1111 -272 174 -14 556 -8 710 11 275 34
487 80 719 156 1265 412 2210 1492 2451 2804 13 72 27 163 30 201 4 39 9 73
11 76 4 7 18 287 18 359 0 60 -13 326 -18 375 -3 28 -11 90 -22 175 -2 20 -7
47 -9 60 -3 14 -12 61 -20 105 -19 107 -19 107 -55 241 -106 400 -275 767
-508 1109 -63 92 -190 260 -227 301 -5 6 -36 40 -67 76 -76 86 -205 215 -298
297 -41 36 -77 69 -80 72 -17 19 -271 206 -355 260 -298 193 -633 346 -981
448 -76 22 -267 67 -329 77 -21 3 -47 8 -59 10 -34 7 -234 32 -316 40 -69 6
-477 13 -483 8z m433 -1899 c233 -42 344 -77 525 -165 379 -184 677 -498 843
-890 83 -196 129 -402 136 -605 5 -170 -18 -381 -61 -535 -34 -127 -114 -324
-154 -382 -11 -14 -19 -29 -19 -32 0 -13 -92 -148 -152 -222 -116 -144 -230
-249 -383 -352 -228 -154 -460 -243 -745 -286 -96 -14 -405 -15 -480 -1 -224
42 -352 81 -517 161 -378 182 -679 497 -846 885 -38 88 -83 222 -92 272 -3 15
-12 58 -19 95 -62 299 -27 666 94 972 129 327 374 624 680 822 90 59 287 158
313 158 9 0 18 4 21 9 3 5 16 11 28 14 13 3 55 15 93 26 39 12 84 24 100 27
17 3 48 9 70 14 22 5 67 12 100 15 33 4 62 9 64 11 6 6 362 -4 401 -11z"/>
</g>
</svg>
